<?xml version="1.0" encoding="utf-8"?>
<!-- Generator: Adobe Illustrator 26.3.1, SVG Export Plug-In . SVG Version: 6.00 Build 0)  -->
<svg version="1.1" id="Group_215" xmlns="http://www.w3.org/2000/svg" xmlns:xlink="http://www.w3.org/1999/xlink" x="0px" y="0px"
	 viewBox="0 0 444.8 206.9" style="enable-background:new 0 0 444.8 206.9;" xml:space="preserve">
<style type="text/css">
	.st0{fill:#3A3838;}
	.st1{fill:#262626;}
	.st2{fill:#7C5C47;}
	.st3{fill:#634839;}
	.st4{fill:#BC906F;}
	.st5{fill:#6C4A36;}
	.st6{fill:#EAE4E1;}
	.st7{fill:#282625;}
	.st8{enable-background:new    ;}
	.st9{fill:#FDC675;}
	.st10{fill:none;stroke:#FDC675;stroke-miterlimit:10;}
</style>
<g>
	<g id="Mask_Group_214">
		<path id="Path_3576" class="st0" d="M203.4,66.2c-1.4-3.4-3.3-6.5-5.7-9.4c-4.3-5.1-9.3-9.5-15-13c-7.1-4.4-14.7-8-22.5-10.7
			c-1.7-0.6-3.3-1.1-4.7-1.6c-0.1-0.7-0.2-1.4-0.5-2.1c-1.2-1.9-2.4-3.8-3.9-5.5c-5.9-7.4-13.7-13-22.6-16.1
			c-12.9-5-26.8-5.9-40.2-2.8c-9.4,1.8-18.2,6-25.7,12c-4.7,3.7-8.7,8.4-11.4,13.8c-0.3,0.7-0.9,1.3-1.7,1.5
			c-5,1.6-9.9,3.5-14.7,5.9c-6.5,3.1-12.5,7-17.9,11.7c-4.7,4-8.7,9.1-11.3,14.8C3,70.2,2.3,76.4,3.4,82.3c1,5.3,3.3,10.2,6.6,14.5
			c5.1,6.9,11.9,11.7,19.5,15.5c0.4,0.2,0.7,0.3,1.1,0.4c0.6,0.2,1.3,0.5,2,0.6c0.2-0.1,1,0.1,1.1-0.2c0-0.4-0.2-0.8-0.4-1
			c-0.3-0.3-2.3-0.9-2.7-1.2c-4.5-2.7-8.8-5.5-12.6-9.1c-3.9-3.9-7.4-8-9.8-13.1C5,81.9,4.7,74.1,7.5,67.1c1.2-3.1,2.8-5.9,4.9-8.5
			c3.4-4.3,7.4-8,11.9-11.2c7.2-5,15-8.9,23.2-11.7c15.1-5.4,30.8-8.1,46.8-8.9c16.1-0.9,32.1,0.4,47.8,3.8
			c10.6,2.2,20.8,5.7,30.5,10.4c6.6,3.2,12.8,7.3,18.2,12.3c3.7,3.3,6.8,7.3,9.1,11.7c1.8,3.4,2.8,7.1,3.2,10.9
			c0.3,5.8-1.1,11.4-4.1,16.4c-2.4,3.9-5.4,7.6-8.9,10.6c-6,5.3-14.8,9.5-22.1,12.6c-0.6,0.3-1.1,0.6-1.6,1
			c-0.9,0.7-1.7,1.6-1.4,2.1c0.4,0.9,2.7,0.7,3.7,0.2c0.9-0.5,4.6-1.7,5.5-2.1c5.6-2.8,10.9-6.1,15.8-10.1
			c5.4-4.4,9.8-9.5,12.9-15.8C206.6,83.2,206.8,74.1,203.4,66.2 M52.8,31.1c0.5-0.7,0.7-1.2,1-1.6C59,21.9,66.2,15.8,74.6,12
			c10.6-5.1,22.5-7.3,34.3-6.4c10.3,0.6,20.4,3.9,29.1,9.4c5.6,3.5,10.3,8.1,13.9,13.7c0.4,0.6,0.6,1.2,1,2
			C119.4,21.8,86.2,21.8,52.8,31.1"/>
		<path id="Path_3577" class="st1" d="M152.9,30.7c-33.6-8.9-66.7-8.9-100.2,0.4c0.5-0.7,0.7-1.2,1-1.6C59,21.9,66.1,15.8,74.6,12
			c10.6-5.1,22.5-7.3,34.3-6.4c10.3,0.6,20.4,3.9,29.1,9.4c5.6,3.5,10.3,8.1,13.9,13.7C152.2,29.2,152.5,29.8,152.9,30.7"/>
		<path id="Path_3578" class="st2" d="M183.4,92.9c-1.1-3.5-4.4-5.7-8-5.4c-0.5,0.1-0.9,0.1-1.5,0.2c-0.3-1.8-0.6-3.5-0.9-5.2
			c-2.2-10.2-7.3-18.7-14.5-26.1c-0.6-0.6-5-4-5.6-4.4c-3-1.9-3.1-2-8-5.1c-7.4-4-13-5.3-21.7-7.2c-4.6-0.9-9.3-1.6-14-1.7
			c-9.8-0.5-19.8,0.6-29.4,3.1c-0.4,0.2-0.9,0.2-1.3,0.2c-2.1,0.7-6.9,2.2-8.3,2.8c-5.1,2.4-6.5,2.8-11,6.3c-3.6,2.8-7,5.7-10.3,8.7
			c-7.5,7.2-13.2,15.6-16.2,25.6c-0.1,0.2-0.2,0.5-0.4,0.7c-1.7-0.6-1.7-0.7-2.8-0.4c-2,0.5-3.9,1.4-5.6,2.7c-1.3,0.9-2,2.5-1.9,4.2
			c0.1,1.8,0.7,3.5,1.8,5c0.6,0.9,1.5,1.5,2.5,1.8c1.4,0.4,2.9,0.4,4.4,0.1c0.1,4.6,0.9,9.1,2.5,13.3c0.2,0.4,0.2,0.7,0.4,1
			c3.5,8.8,9.5,15.7,17.2,21c11.6,8,24.7,11.5,38.6,12.4c4.9,0.3,9.7-0.2,14.5,0.2s9.7-0.5,14.5-1.4c14.5-2.8,27.6-8.7,38.8-18.4
			l0.6-0.5l2-1.8c0.3-0.4,0.7-0.8,1-1.1c0.8-0.9,1.6-1.9,2.4-2.8c0.6-0.7,1.1-1.4,1.7-2.1c0.5-0.7,0.9-1.4,1.4-2.1
			c3.1-4.6,5.2-9.6,6.5-15c0.1,0.3,1.6,0.2,2,0.3c0.6,0.2,1.2,0.2,1.7-0.1c2.5-0.7,4.7-2.2,6.2-4.3
			C183.7,96.2,184.1,94.4,183.4,92.9 M31.8,88.8c-0.7,3.2-1,6.6-0.9,9.9c-0.4-0.1-0.9-0.2-1.3-0.2c-0.2-0.1-0.4-0.2-0.6-0.2
			c-1.8-0.2-3.3-1.6-3.8-3.4c-0.2-0.8-0.5-1.7-0.6-2.4c-0.3-1.2,0.2-2.4,1.2-3c1.3-0.9,2.8-1.7,4.3-2.4c0.6-0.3,1.4-0.3,2,0.2
			C32,87.7,32,88.2,31.8,88.8 M171.9,94.8c-0.3,4.8-1.5,9.5-3.5,13.9c-0.2,0.5-0.4,0.9-0.6,1.4c0,0.1-0.1,0.2-0.2,0.3
			c-0.2,0.5-0.5,0.9-0.7,1.3v0.1c-0.2,0.4-0.4,0.8-0.6,1.2c-0.1,0.2-0.2,0.3-0.2,0.5c-0.6,0.9-1,1.8-1.7,2.7
			c-0.3,0.5-0.6,0.9-0.9,1.3l0,0c-0.3,0.4-0.6,0.9-0.9,1.3c-0.1,0.1-0.1,0.2-0.2,0.2c-0.3,0.4-0.6,0.8-0.9,1.2c0,0,0,0,0,0.1
			c-0.5,0.6-0.9,1.1-1.4,1.7s-0.9,1.1-1.5,1.7L156,126c-0.6,0.6-1,0.9-1.3,1.3c-6.1,5.4-13.2,9.7-20.9,12.4
			c-8.7,3.2-18,5.1-27.3,5.4c-0.6,0-1.5,0.1-2,0c-0.7-0.1-2.8,0-3.5,0c-3.9,0.1-6,0.1-9.8-0.1c-13.3-0.6-25.9-3.8-37.3-11
			c-6.1-3.8-11.3-9-15.1-15.1c-5.6-8.8-7.5-19.5-5.2-29.7c0.1-0.3,0.2-0.6,0.2-0.9c0.4-1.9,0.9-3.7,1.6-5.5
			c2.5-7.1,6.5-13.5,11.7-19c2.4-2.6,4.9-5,7.6-7.2c4.3-3.4,8.7-6.6,13.7-8.9c5.3-2.4,10.9-4.2,16.5-5.4c7.6-1.6,15.4-2.3,23.2-2
			c11.4,0.4,22.4,2.4,33,7.1c6.5,2.8,12.4,6.9,17.2,12.3c1.2,1.4,2.5,2.6,3.8,3.9c0.2,0.2,0.4,0.5,0.6,0.7
			c6.1,8.3,9.5,17.6,9.4,28.1v0.2C172,93.4,171.9,94.1,171.9,94.8L171.9,94.8z M181,96.2c-0.4,0.5-0.8,0.9-1.3,1.3
			c-1.4,1.3-3.2,2.1-5,2.6c-0.7,0.2-1.4,0.7-1.9,1.3c0.7-3.2,1.1-6.4,1.1-9.6c0-0.4,0.1-0.9,0.1-1.3c0.9-0.2,1.7-0.4,2.6-0.4
			c2,0.2,3.8,1.4,4.6,3.3C181.8,94.3,181.6,95.4,181,96.2"/>
		<path id="Path_3579" class="st3" d="M171.1,92.6c-0.8-3.8-3.7-5.4-6.9-6.4c-1.2-0.3-2.4-0.2-3.5,0.3c-1.9,0.7-3.4,2.2-4.2,4
			c-0.4,0.9-0.7,1.7-1,2.6c-1.9,4.4-5.3,6.8-10,6.9c-4.5,0.1-8.9-0.9-12.9-3.1c-0.6-0.4-1.3-0.7-2-1c-0.8-0.3-1.3-0.1-1.3,0.8
			c-0.1,0.6-0.1,1.2-0.1,1.8c0,1.3,0.1,2.7,0.1,4c0,2.6-0.9,5.1-2.4,7.2c-2.3,3.1-5.3,4.3-9,3.6c-3.2-0.6-6.3-1.4-9.5-2
			c-1-0.2-2-0.3-3.1-0.6c-0.7-0.2-1.3-0.3-2-0.5c-2.1-0.6-3.4,0-3.9,2.1c-0.2,1.2-0.3,2.4-0.2,3.5c0.2,2.8-1.3,4.2-4.2,3.9
			c-3.5-0.3-6.5-2.4-8.1-5.4c-2.3-4.2-5.4-7.9-8.3-11.7c-0.6-0.9-1.5-1.6-2.4-1.9c-0.2,0.3-0.3,0.6-0.6,0.9
			c-1.5,1.8-3.2,3.4-5.2,4.6c-1.8,1.3-4.2,1.6-6.3,0.9c-5.2-1.5-8.3-5.2-8.8-10.6c-0.2-1.5-0.2-3.1-0.2-4.6c0.2-2-0.7-3.9-2.3-5.1
			c-1-0.8-2-1.6-3.1-2.4c-1.4-0.9-3.2-1.3-4.9-0.9c-2.2,0.4-8.5,3.8-10.1,5.5c-0.2,0.2-0.3,0.2-0.5,0.3c-0.1,0-0.2,0.1-0.3,0.1
			c-0.2-0.2-0.4-0.3-0.5-0.6c-2.2,10.2-0.4,20.9,5.2,29.7c3.9,6.1,9,11.3,15.1,15.1c11.3,7.2,23.9,10.5,37.3,11
			c3.9,0.2,5.9,0.2,9.8,0.1c0.7,0,2.8-0.1,3.5,0c0.6,0.1,1.5,0,2,0c9.4-0.3,18.6-2.2,27.3-5.4c7.6-2.8,14.7-7,20.8-12.4
			c0.4-0.3,0.7-0.7,1.3-1.3l2.5-2.4c4.1-4.3,7.4-9.4,9.8-14.8c2-4.4,3.2-9.1,3.5-13.9l0,0C171.8,94.7,171.1,92.8,171.1,92.6
			 M159,106.7c-0.9,1.7-1.9,3.5-2.9,5.1c-3.1,4.3-6.9,8.1-11.3,11c-0.5,0.3-0.9,0.7-1.3,1.1l0,0c-0.4,0.2-0.7,0.3-1,0.5
			c-7.9,4.9-16.5,7.9-25.6,9.6c-6.7,1.3-13.5,1.7-20.3,1.5c-11.7-0.5-22.9-2.9-33.4-8.3c-6.5-3.4-12.2-7.8-16.6-13.7
			c-0.4-0.6-0.8-1.1-1.2-1.7c-0.5-0.6-0.4-1.6,0.2-2l0.1-0.1c0.6-0.4,1.3-0.2,2,0.6c0.1,0.1,0.2,0.2,0.2,0.4
			c4.3,6.3,10.2,10.8,16.9,14.3c6.8,3.5,14.1,5.9,21.7,7.2c7.8,1.3,15.8,1.7,23.6,0.9c11.2-1.1,21.7-4.2,31.3-10
			c6.9-4.3,12.6-9.8,16.2-17.2c0.2-0.4,0.4-0.7,0.6-0.9c0.2-0.2,0.6-0.3,0.8-0.2c0.2,0.2,0.5,0.5,0.5,0.8
			C159.4,105.8,159.2,106.2,159,106.7"/>
		<path id="Path_3580" class="st4" d="M162.6,64.3c-0.2-0.2-0.3-0.5-0.6-0.7c-1.3-1.3-2.6-2.6-3.8-3.9c-4.7-5.4-10.6-9.5-17.2-12.3
			c-10.5-4.6-21.6-6.7-33-7.1c-7.8-0.3-15.6,0.4-23.2,2c-5.7,1.2-11.2,3-16.5,5.4c-5,2.3-9.5,5.5-13.7,8.9c-2.8,2.2-5.3,4.6-7.6,7.2
			c-5.2,5.4-9.1,12-11.7,19c-0.6,1.8-1.2,3.6-1.6,5.5c0.2-0.2,0.5-0.5,0.6-0.6c3-3.3,12.2-8.2,16.9-4.2c1.3,1.1,2.8,2.1,4,3.3
			c1.1,1,1.7,2.5,1.7,4c0.1,1.6,0.1,3.2,0.2,4.7c0.1,1,0.2,2,0.5,2.9c1,3.9,3.9,5.9,7.6,6.9c1.3,0.3,2.5,0.1,3.5-0.6
			c1.9-1.1,3.6-2.5,5-4.2c1.6-2,3.1-2,4.9-0.3c0.2,0.2,0.5,0.4,0.6,0.6c2.9,3.7,6.1,7.2,8.3,11.4c0.5,0.9,1.1,1.8,1.7,2.6
			c1.3,1.7,3.3,2.8,5.4,3.1c0.5,0.1,0.9,0,1.3-0.1c0.9-0.2,1-0.5,1-1.3c-0.1-1-0.1-2-0.1-3c0.1-0.9,0.2-1.7,0.6-2.4
			c1.2-2.9,2.9-3.4,5-3c2.4,0.5,4.6,1.2,6.9,1.7c3.2,0.7,6.3,1.3,9.5,1.8c1.9,0.3,3.7-0.4,5-1.7c2-1.9,3.2-4.6,3.2-7.3
			c0-1.7-0.1-3.3-0.1-4.9c0-3.4,1.8-4.5,4.9-3c2.9,1.6,6,2.6,9.3,3.2c1.7,0.2,3.5,0.3,5.2,0.2c2.8-0.2,5.3-1.8,6.5-4.3
			c0.6-1,0.9-2.2,1.4-3.3c1.2-3.1,3.9-5.4,7.1-5.9c0.8-0.2,1.7-0.2,2.5,0c2.5,0.6,4.8,2,6.5,4c0.8,1.2,1.3,2.5,1.5,3.9
			C172.2,82.1,168.8,72.7,162.6,64.3 M82.8,57.6c-1,0.6-2.1,1.2-3.3,1.6c-2.8,0.8-5.8,1.2-8.8,1c-0.8,0.1-1.5-0.2-2.1-0.6
			c0.3-0.4,0.6-0.8,0.9-1.1c0.3-0.5,0.6-0.9,1-1.3c3.1-2.3,6.5-3.7,10.4-3.5c0.5,0,0.9,0.1,1.5,0.2c0.8,0.2,1.4,0.9,1.5,1.7
			C83.8,56.4,83.5,57.2,82.8,57.6 M108.8,99.7c-0.2,1.7-1.3,3-2.9,3.5c-2.2,0.7-4.5,0.9-6.8,0.7c-1.3-0.1-2.4-0.1-3.7-0.2
			c-0.7-0.1-1.3-0.2-2-0.6c-1.1-0.5-1.6-1.7-1.3-2.8c0.3-1.3,0.6-2.7,1.1-4c1-2.6,2.1-5.1,3.2-7.7c0.2-0.5,0.4-1.2,1.1-0.9
			c0.7,0.2,0.4,0.9,0.2,1.4c-0.7,2.1-1.4,4.3-2,6.4c-0.5,1.4-0.8,2.8-1.2,4.3c-0.1,0.4-0.1,0.8-0.2,1.2c0.2,0.1,0.5,0.2,0.8,0.2
			c2.4,0.1,4.9,0.2,7.2,0.3c0.9,0,1.7-0.2,2.6-0.4c0.7-0.2,1.3-0.6,1.5-1.3c0.3-0.8-0.1-1.3-0.9-1.2c-0.5,0.1-0.9,0.2-1.4,0.4
			c-0.5-1.4,0.2-2.4,1.6-2.5c1.5-0.2,2.8,0.9,2.9,2.4C108.9,99.2,108.9,99.5,108.8,99.7 M144.7,59.6c-1.7,0.3-3.4,0.2-5-0.4
			c-0.9-0.3-1.8-0.8-2.7-1.2c-0.4-0.2-0.8-0.2-1.3-0.5c-0.1-0.2-0.1-0.2-0.2-0.4c-0.8-1.7-0.2-2.9,1.7-3.2c0.7-0.2,1.5-0.2,2.2,0
			c1.3,0.3,2.6,0.6,3.9,1c1,0.3,2,1,2.5,2C146.5,58.4,146.2,59.2,144.7,59.6"/>
		<path id="Path_3581" class="st4" d="M32.1,87.2c-0.1,0.5-0.2,1-0.3,1.6c-0.7,3.2-1,6.6-0.9,9.9c-0.4-0.1-0.9-0.2-1.3-0.2
			c-0.2-0.1-0.4-0.2-0.6-0.2c-1.8-0.2-3.3-1.6-3.8-3.4c-0.2-0.8-0.5-1.7-0.6-2.4c-0.3-1.2,0.2-2.4,1.2-3c1.3-0.9,2.8-1.7,4.3-2.4
			C30.7,86.6,31.5,86.7,32.1,87.2"/>
		<path id="Path_3582" class="st1" d="M31.1,98.8c-0.1,0-0.2,0.1-0.2,0.1v-0.2C30.9,98.7,31,98.7,31.1,98.8"/>
		<path id="Path_3583" class="st1" d="M172.8,101.6c0-0.1,0-0.2,0.1-0.2C172.9,101.4,172.9,101.5,172.8,101.6"/>
		<path id="Path_3584" class="st4" d="M180.9,96.2c-0.4,0.5-0.8,0.9-1.3,1.3c-1.4,1.3-3.2,2.1-5,2.6c-0.7,0.2-1.4,0.7-1.9,1.3
			c0.7-3.2,1.1-6.4,1.1-9.6c0-0.4,0.1-0.9,0.1-1.3c0.9-0.2,1.7-0.4,2.6-0.4c2,0.2,3.8,1.4,4.6,3.3C181.8,94.3,181.6,95.4,180.9,96.2
			"/>
		<path id="Path_3585" class="st1" d="M198.9,92.4c-2.4,3.9-5.4,7.6-8.9,10.6c-6,5.3-14.8,9.5-22.1,12.6c-0.6,0.3-1.1,0.6-1.6,1
			c3.1-4.6,5.2-9.6,6.5-15c0.1,0.3,1.6,0.2,2,0.3c0.6,0.2,1.2,0.2,1.7-0.1c2.5-0.7,4.7-2.2,6.2-4.3c1-1.3,1.3-3.1,0.7-4.6
			c-1.1-3.5-4.4-5.7-8-5.4c-0.5,0.1-0.9,0.1-1.5,0.2c-0.3-1.8-0.6-3.5-0.9-5.2c-2.2-10.2-7.3-18.7-14.5-26.1c-0.6-0.6-5-4-5.6-4.4
			c-3-1.9-3.1-2-8-5.1c-7.4-4-13-5.3-21.7-7.2c-4.6-0.9-9.3-1.6-14-1.7c-9.8-0.5-19.8,0.6-29.4,3.1c-0.4,0.2-0.9,0.2-1.3,0.2
			c-2.1,0.7-6.9,2.2-8.3,2.8c-5.1,2.4-6.5,2.8-11,6.3c-3.6,2.8-7,5.7-10.3,8.7c-7.5,7.2-13.2,15.6-16.2,25.6
			c-0.1,0.2-0.2,0.5-0.4,0.7c-1.7-0.6-1.7-0.7-2.8-0.4c-2,0.5-3.9,1.4-5.6,2.7c-1.3,0.9-2,2.5-1.9,4.2c0.1,1.8,0.7,3.5,1.8,5
			c0.6,0.9,1.5,1.5,2.5,1.8c1.4,0.4,2.9,0.4,4.4,0.1c0.1,4.6,0.9,9.1,2.4,13.3c-0.3-0.3-2.3-0.9-2.7-1.2c-4.5-2.7-8.8-5.5-12.6-9.1
			c-3.9-3.9-7.4-8-9.8-13.1c-3.2-6.8-3.5-14.6-0.7-21.6c1.2-3.1,2.8-5.9,4.9-8.5c3.4-4.3,7.4-8,11.9-11.2c7.2-5,15-8.9,23.2-11.7
			c15.1-5.4,30.8-8.1,46.8-8.9c16.1-0.9,32.1,0.4,47.8,3.8c10.6,2.2,20.8,5.7,30.5,10.4c6.6,3.2,12.8,7.3,18.2,12.3
			c3.7,3.3,6.8,7.3,9.1,11.7c1.8,3.4,2.8,7.1,3.2,10.9C203.4,81.7,201.9,87.5,198.9,92.4"/>
		<path id="Path_3586" class="st5" d="M171.9,94.8c-0.1-0.2-0.8-2-0.8-2.2c-0.8-3.8-3.7-5.4-6.9-6.4c-1.2-0.3-2.4-0.2-3.5,0.3
			c-1.9,0.7-3.4,2.2-4.2,4c-0.4,0.9-0.7,1.7-1,2.6c-1.9,4.4-5.3,6.8-10,6.9c-4.5,0.1-8.9-0.9-12.9-3.1c-0.6-0.4-1.3-0.7-2-1
			c-0.8-0.3-1.3-0.1-1.3,0.8c-0.1,0.6-0.1,1.2-0.1,1.8c0,1.3,0.1,2.7,0.1,4c0,2.6-0.9,5.1-2.4,7.2c-2.3,3.1-5.3,4.3-9,3.6
			c-3.2-0.6-6.3-1.4-9.5-2c-1-0.2-2-0.3-3.1-0.6c-0.7-0.2-1.3-0.3-2-0.5c-2.1-0.6-3.4,0-3.9,2.1c-0.2,1.2-0.3,2.4-0.2,3.5
			c0.2,2.8-1.3,4.2-4.2,3.9c-3.5-0.3-6.5-2.4-8.1-5.4c-2.3-4.2-5.4-7.9-8.3-11.7c-0.6-0.9-1.5-1.6-2.4-1.9c-0.2,0.3-0.3,0.6-0.6,0.9
			c-1.5,1.8-3.2,3.4-5.2,4.6c-1.8,1.3-4.2,1.6-6.3,0.9c-5.2-1.5-8.3-5.2-8.8-10.6c-0.2-1.5-0.2-3.1-0.2-4.6c0.2-2-0.7-3.9-2.3-5.1
			c-1-0.8-2-1.6-3.1-2.4c-1.4-0.9-3.2-1.3-4.9-0.9c-2.2,0.4-8.5,3.8-10.1,5.5c-0.2,0.2-0.3,0.2-0.5,0.3c-0.1,0-0.2,0.1-0.3,0.1
			c-0.2-0.2-0.4-0.3-0.5-0.6c-0.1-0.2-0.1-0.4,0-0.6c0-0.1,0.1-0.2,0.2-0.2c0.2-0.2,0.5-0.5,0.6-0.6c3-3.3,12.2-8.2,16.9-4.2
			c1.3,1.1,2.8,2.1,4,3.3c1.1,1,1.7,2.5,1.7,4c0.1,1.6,0.1,3.2,0.2,4.7c0.1,1,0.2,2,0.5,2.9c1,3.9,3.9,5.9,7.6,6.9
			c1.3,0.3,2.5,0.1,3.5-0.6c1.9-1.1,3.6-2.5,5-4.2c1.6-2,3.1-2,4.9-0.3c0.2,0.2,0.5,0.4,0.6,0.6c2.9,3.7,6.1,7.2,8.3,11.4
			c0.5,0.9,1.1,1.8,1.7,2.6c1.3,1.7,3.3,2.8,5.4,3.1c0.5,0.1,0.9,0,1.3-0.1c0.9-0.2,1-0.5,1-1.3c-0.1-1-0.1-2-0.1-3
			c0.1-0.9,0.2-1.7,0.6-2.4c1.2-2.9,2.9-3.4,5-3c2.4,0.5,4.6,1.2,6.9,1.7c3.2,0.7,6.3,1.3,9.5,1.8c1.9,0.3,3.7-0.4,5-1.7
			c2-1.9,3.2-4.6,3.2-7.3c0-1.7-0.1-3.3-0.1-4.9c0-3.4,1.8-4.5,4.9-3c2.9,1.6,6,2.6,9.3,3.2c1.7,0.2,3.5,0.3,5.2,0.2
			c2.8-0.2,5.3-1.8,6.5-4.3c0.6-1,0.9-2.2,1.4-3.3c1.2-3.1,3.9-5.4,7.1-5.9c0.8-0.2,1.7-0.2,2.5,0c2.5,0.6,4.8,2,6.5,4
			c0.8,1.2,1.3,2.5,1.5,3.9l0,0C172.2,93.3,172.1,94,171.9,94.8"/>
		<path id="Path_3587" class="st4" d="M159.4,105.3c0,0.5-0.2,0.9-0.4,1.4c-0.9,1.7-1.9,3.5-2.9,5.1c-3.1,4.3-6.9,8.1-11.3,11
			c-0.5,0.3-0.9,0.7-1.3,1.1l0,0c-0.4,0.2-0.7,0.3-1,0.5c-7.9,4.9-16.5,7.9-25.6,9.6c-6.7,1.3-13.5,1.7-20.3,1.5
			c-11.7-0.5-22.9-2.9-33.4-8.3c-6.5-3.4-12.2-7.8-16.6-13.7c-0.4-0.6-0.8-1.1-1.2-1.7c-0.5-0.6-0.4-1.6,0.2-2l0.1-0.1
			c0.6-0.4,1.3-0.2,2,0.6c0.1,0.1,0.2,0.2,0.2,0.4c4.3,6.3,10.2,10.8,16.9,14.3c6.8,3.5,14.1,5.9,21.7,7.2
			c7.8,1.3,15.8,1.7,23.6,0.9c11.2-1.1,21.7-4.2,31.3-10c6.9-4.3,12.6-9.8,16.2-17.2c0.2-0.4,0.4-0.7,0.6-0.9
			c0.2-0.2,0.6-0.3,0.8-0.2C159.2,104.7,159.4,105,159.4,105.3"/>
		<path id="Path_3588" class="st2" d="M108.8,99.7c-0.2,1.7-1.3,3-2.9,3.5c-2.2,0.7-4.5,0.9-6.8,0.7c-1.3-0.1-2.4-0.1-3.7-0.2
			c-0.7-0.1-1.3-0.2-2-0.6c-1.1-0.5-1.6-1.7-1.3-2.8c0.3-1.3,0.6-2.7,1.1-4c1-2.6,2.1-5.1,3.2-7.7c0.2-0.5,0.4-1.2,1.1-0.9
			c0.7,0.2,0.4,0.9,0.2,1.4c-0.7,2.1-1.4,4.3-2,6.4c-0.5,1.4-0.8,2.8-1.2,4.3c-0.1,0.4-0.1,0.8-0.2,1.2c0.2,0.1,0.5,0.2,0.8,0.2
			c2.4,0.1,4.9,0.2,7.2,0.3c0.9,0,1.7-0.2,2.6-0.4c0.7-0.2,1.3-0.6,1.5-1.3c0.3-0.8-0.1-1.3-0.9-1.2c-0.5,0.1-0.9,0.2-1.4,0.4
			c-0.5-1.4,0.2-2.4,1.6-2.5c1.5-0.2,2.8,0.9,2.9,2.4C108.9,99.2,108.9,99.5,108.8,99.7"/>
		<path id="Path_3589" class="st2" d="M83.6,55.7c-0.1-0.8-0.7-1.5-1.5-1.7c-0.5-0.2-0.9-0.2-1.4-0.2c-3.9-0.2-7.2,1.3-10.4,3.5
			c-0.4,0.4-0.7,0.8-1,1.3c-0.3,0.4-0.6,0.7-0.9,1.1c0.6,0.4,1.4,0.6,2.1,0.6c3,0.2,6-0.2,8.8-1c1.2-0.4,2.3-0.9,3.3-1.6
			C83.5,57.2,83.8,56.4,83.6,55.7"/>
		<path id="Path_3590" class="st2" d="M145.8,57c-0.6-0.9-1.4-1.7-2.5-2c-1.3-0.4-2.5-0.8-3.9-1c-0.7-0.2-1.5-0.2-2.2,0
			c-1.9,0.3-2.4,1.4-1.7,3.2c0.1,0.2,0.2,0.3,0.2,0.4c0.6,0.2,0.9,0.2,1.3,0.5c0.9,0.4,1.8,0.9,2.7,1.2c1.6,0.6,3.3,0.8,5,0.4
			C146.2,59.2,146.6,58.4,145.8,57"/>
		<path id="Path_3591" class="st6" d="M75,76c-0.2-0.6-0.4-1.2-0.6-1.7c-0.2-0.6-0.5-1.1-0.8-1.9h2.6C77.2,74.3,76.9,75.3,75,76"/>
		<path id="Path_3592" class="st7" d="M75,76c-0.2-0.6-0.4-1.2-0.6-1.7c-0.2-0.6-0.5-1.1-0.8-1.9h2.6C77.2,74.3,76.9,75.3,75,76"/>
		<path id="Path_3593" class="st6" d="M138.5,72.6c-0.9-0.6-1-1.4-0.6-2.5c1.2,0.7,2.8,0.5,3.5,2C140.7,73,139.5,73.2,138.5,72.6"/>
		<path id="Path_3594" class="st7" d="M141.4,72.1c-0.6,0.9-1.9,1.1-2.8,0.6s-1-1.4-0.6-2.5C139.1,70.8,140.7,68.4,141.4,72.1"/>
		<g class="st8">
			<path class="st9" d="M61,173.5c-1.8,6.2-5.3,11.8-10.6,15.5c-4.6,3.1-10.3,4.4-15.6,3.1c0.3,4,0.7,7.8,1.1,11.6
				c0.1,0.8-0.7,1.4-1.3,1.4c-0.7,0-1.1-0.6-1.2-1.4c-0.5-3.2-0.8-6.7-1.1-10.1c-0.1-0.8-0.1-1.6-0.1-2.4c-0.2-0.1-0.5-0.1-0.7-0.2
				c-0.7-0.3-0.8-1.3-0.5-1.9c0.3-0.3,0.5-0.5,1-0.6c-0.7-10.1-1-20.3-0.5-30.5c0-1.8,2.7-1.8,2.6,0c-0.1,3.4-0.1,6.8-0.1,10
				c0,3,0.1,5.9,0.1,8.9c1.3-4,3.2-8,5.7-11.6c3.5-5,8.8-11,15.7-9.5C63.1,157.7,62.6,167.6,61,173.5z M58.5,161.6
				c-1-2.4-3.5-3.3-6.1-3.2c-2.7,0.2-5.2,2.1-7,4c-2,2.2-3.8,4.7-5.3,7.3c-3,5.3-4.9,11.2-5.6,17.3c0,0.2-0.1,0.3-0.1,0.4
				c0,0.7,0.1,1.4,0.1,2c5.6,1.6,11.7-0.2,16-3.8c4.4-3.9,7.1-9.3,8.3-14.9C59.4,167.9,59.7,164.4,58.5,161.6z"/>
			<path class="st9" d="M92.7,192c4-2.1,7.3-6.3,9.2-10.1c0.7-1.6,3.1-0.1,2.3,1.4c-2.6,5-7.2,10-12.8,12.2c-7.9,3.2-10.9-3.6-11-10
				c-0.6,0.8-1.4,1.9-2,2.6c-2.6,2.9-6.1,5.2-10,4.3c-1.7-0.4-3.5-1.5-4.2-3.1c-0.8-1.8-0.8-3.9-0.2-5.7c2.2-6.9,10.7-10.4,17.4-8.3
				c0.7,0.2,1,0.8,1,1.4c0.2-0.5,0.3-0.8,0.4-1.3c0.5-1.6,3-0.9,2.6,0.8C82.1,182.5,80.9,198.2,92.7,192z M81.7,177.5
				c-0.2,0.4-0.7,0.6-1.3,0.4c-3.1-0.9-6.3-0.6-9.2,0.9c-2.4,1.4-4.5,3.5-5.1,6.4c-0.3,1.3-0.2,2.7,0.7,3.7c0.8,1,2.3,1.3,3.6,1.3
				c3.1-0.3,5.5-3.2,7.3-5.5C79.4,182.4,80.8,180,81.7,177.5z"/>
			<path class="st9" d="M130.3,192c4-2.1,7.3-6.3,9.2-10.1c0.7-1.6,3.1-0.1,2.3,1.4c-2.6,5-7.2,10-12.8,12.2
				c-7.9,3.2-10.9-3.6-11-10c-0.6,0.8-1.4,1.9-2,2.6c-2.6,2.9-6.1,5.2-10,4.3c-1.7-0.4-3.5-1.5-4.2-3.1c-0.8-1.8-0.8-3.9-0.2-5.7
				c2.2-6.9,10.7-10.4,17.4-8.3c0.7,0.2,1,0.8,1,1.4c0.2-0.5,0.3-0.8,0.4-1.3c0.5-1.6,3-0.9,2.6,0.8
				C119.7,182.5,118.5,198.2,130.3,192z M119.4,177.5c-0.2,0.4-0.7,0.6-1.3,0.4c-3.1-0.9-6.3-0.6-9.2,0.9c-2.4,1.4-4.5,3.5-5.1,6.4
				c-0.3,1.3-0.2,2.7,0.7,3.7c0.8,1,2.3,1.3,3.6,1.3c3.1-0.3,5.5-3.2,7.3-5.5C117,182.4,118.4,180,119.4,177.5z"/>
			<path class="st9" d="M139.4,183.3c-0.3-4.2,0.1-8.6,0.8-12.6c0.6-3.7,1.5-7.4,2.9-10.9c0.7-1.7,1.5-3.5,2.5-5.2
				c0.9-1.6,2-3.2,3.4-4.4s3.5-2,5.2-0.9c1.4,0.7,1.8,2.3,1.9,3.7c0.2,1.6-0.4,3.2-0.8,4.8c-0.5,1.8-1.1,3.5-1.7,5.3
				c-2.6,6.8-6.6,13-11.6,18.3c0.1,0.6,0.1,1.1,0.1,1.6c0.4,14.9,14.5,14.6,20.3-1c0.2-0.7,1.3-0.8,1.8-0.5c0.7,0.4,0.8,1.2,0.5,1.9
				C156.9,201,140.7,201.2,139.4,183.3z M142.4,173.2c-0.2,1.4-0.4,2.8-0.4,4.3c4-4.7,7.1-10.2,9.3-16.1c0.6-1.5,1.1-3.1,1.5-4.6
				c0.4-1.3,0.7-2.8,0.5-4c-0.1-0.8-0.5-1.6-1.4-1.4c-1.4,0.5-2.4,2.2-3.2,3.3C145,160.3,143.4,166.9,142.4,173.2z"/>
			<path class="st9" d="M167.3,156.3c0.7,0,1.4,0.6,1.4,1.3c-0.1,1.5-0.1,3.1,0.2,4.6c0.2,1.5-2.1,2.1-2.5,0.7
				c-0.4-1.7-0.5-3.5-0.4-5.3C166,156.9,166.6,156.3,167.3,156.3z"/>
			<path class="st9" d="M199.4,183.7c-3.4,1.4-6.7,3.1-9.8,4.9c-0.5,0.4-1,0.7-1.6,1.1c1.4,1.3,2.2,3.1,2.4,5.2c0.4,3.1-1,6-3.1,8.2
				c-2.1,2.3-5.2,4.3-8.3,3.7c-3.4-0.7-4.5-4.4-3.8-7.4c0.8-3.1,3.2-5.7,5.6-7.8c0.7-0.7,1.4-1.1,2.1-1.7c-1.8-0.5-3.9-0.7-5.8-1.3
				c-2.4-0.8-4.8-2.2-5.7-4.8c-1.1-2.9,0.5-6.2,2.5-8.4c1.7-2,4.3-3.5,6.9-4.1c1.7-0.4,2.4,2.2,0.8,2.6c-3,0.7-5.6,2.6-7,5.3
				c-0.7,1.3-1.2,2.9-0.4,4.3c0.6,1.1,1.8,1.8,2.8,2.3c2.8,1.1,5.6,1.1,8.3,2.3c0.1,0,0.2,0.1,0.4,0.1c1.1-0.8,2.3-1.4,3.4-2.1
				c3.2-1.8,6.4-3.4,9.7-4.8c0.7-0.2,1.5,0.4,1.7,1C200.6,182.8,200,183.4,199.4,183.7z M185.6,191.2c-1.6,1-3.1,2.3-4.4,3.7
				c-1.7,1.6-4.1,4.4-3.5,7.1c0.2,1.1,0.9,2.1,2.2,2.2s2.5-0.5,3.5-1.1c2.2-1.4,4-3.7,4.4-6.4C188.1,194.6,187.3,192.4,185.6,191.2z
				"/>
			<path class="st9" d="M249.4,173.5c-1.8,6.2-5.3,11.8-10.6,15.5c-4.6,3.1-10.3,4.4-15.6,3.1c0.3,4,0.7,7.8,1.1,11.6
				c0.1,0.8-0.7,1.4-1.3,1.4c-0.7,0-1.1-0.6-1.2-1.4c-0.5-3.2-0.8-6.7-1.1-10.1c-0.1-0.8-0.1-1.6-0.1-2.4c-0.2-0.1-0.5-0.1-0.7-0.2
				c-0.7-0.3-0.8-1.3-0.5-1.9c0.3-0.3,0.5-0.5,1-0.6c-0.7-10.1-1-20.3-0.5-30.5c0-1.8,2.7-1.8,2.6,0c-0.1,3.4-0.1,6.8-0.1,10
				c0,3,0.1,5.9,0.1,8.9c1.3-4,3.2-8,5.7-11.6c3.5-5,8.8-11,15.7-9.5C251.6,157.7,251,167.6,249.4,173.5z M246.9,161.6
				c-1-2.4-3.5-3.3-6.1-3.2c-2.7,0.2-5.2,2.1-7,4c-2,2.2-3.8,4.7-5.3,7.3c-3,5.3-4.9,11.2-5.6,17.3c0,0.2-0.1,0.3-0.1,0.4
				c0,0.7,0.1,1.4,0.1,2c5.6,1.6,11.7-0.2,16-3.8c4.4-3.9,7.1-9.3,8.3-14.9C247.9,167.9,248.1,164.4,246.9,161.6z"/>
			<path class="st9" d="M278.3,184.3c-2.4,2.6-8,4.1-11.3,4.4c-0.1,0.2-0.1,0.4-0.2,0.7c-1.3,2.5-3.4,5.3-6.4,6.1
				c-3.1,1-5.7-1.1-7-3.8c-1-2.5-1.3-5.3,0.1-7.6c-1.1-1.6-1.7-3.5-1.4-5.6c0.5-2.9,2.9-5.6,5.5-6.9c2.7-1.3,6.1-1.3,8.4,0.8
				c2.1,2.1,2.6,5.6,2.6,8.3c0,1.7-0.2,3.4-0.7,5c2.3-0.2,6.6-1.7,8.5-3.9C277.4,181,279.8,182.7,278.3,184.3z M255.1,181.7
				c0.9,1.9,2.8,3.1,4.8,3.7c1.7,0.7,3.5,0.8,5.4,0.8c0.8-2.5,1.1-5.2,0.7-7.6c-0.4-2.2-1.1-4.4-3.5-5c-2.2-0.5-4.3,0.7-5.8,2.2
				C255.2,177.4,254.2,179.6,255.1,181.7z M264.1,188.8c-2.9-0.2-6.1-0.8-8.5-2.7c-0.8,1.7,0,4.3,1,5.7c0.5,0.8,1.4,1.5,2.6,1.4
				C261.3,192.9,263,190.7,264.1,188.8z"/>
			<path class="st9" d="M298.8,183c-2.3,1.3-5.2,2.2-7.6,1c-1.1-0.5-1.9-1.4-2.6-2.4c-0.6-0.8-1-1.9-1.7-2.6
				c-1.9-1.9-2.9,0.8-3.8,2.5c-1,2.5-1.7,5-2.3,7.5c-0.7,2.8-1.3,5.5-2,8.2c-0.3,1.6-2.5,1.2-2.6-0.2c-0.4-9,0.4-18.1,2.2-26.8
				c0.1-0.7,1-1.1,1.6-1c0.8,0.2,1.1,1,0.9,1.7c-0.8,4.7-1.4,9.5-1.7,14.3c0.5-2.1,1.3-4.1,2.2-6c0.5-1,1.1-2.3,2.3-3
				c1.1-0.8,2.5-0.7,3.8-0.1c1,0.5,1.9,1.6,2.5,2.7c0.6,0.8,1,1.9,1.9,2.5c1.6,1.3,4.1,0.4,5.8-0.5
				C299.1,179.9,300.3,182.2,298.8,183z"/>
			<path class="st9" d="M311.2,193c-2.3,2-4.8,3.2-7.4,3.1c-10.6-0.9-4.8-26-3.7-30.5c-2.5,0-4.4-0.1-6.9-0.2
				c-1.7-0.1-1.3-2.6,0.4-2.6c2.5,0.1,4.6,0.2,7.1,0.2c0.7-3.4,2.4-9.3,3.6-13.1c0.2-0.7,1.3-1,1.9-0.8c0.6,0.3,1.1,0.9,0.8,1.7
				c-1.3,3.5-2.8,8.6-3.7,12.2l0.5-0.1c4-0.1,7.9-0.4,11.8-0.7c0.7-0.1,1.2,0.7,1.1,1.3c-0.1,0.8-0.8,1.3-1.6,1.4
				c-4,0.4-8.6,0.5-12.5,0.7c-1.3,4.3-6.7,29.3,2.5,27.9c1.6-0.3,3.1-1.1,4.4-2.2c2.8-2.3,5-5.3,6.6-8.8c0.7-1.6,3-0.6,2.2,1.1
				C316.9,187.1,314.5,190.2,311.2,193z"/>
			<path class="st9" d="M322.3,183.2c6.4,0.5,13-0.5,19-2.8c0.7-0.2,1.4,0.3,1.6,0.9c0.2,0.8-0.2,1.4-0.9,1.7
				c-6.3,2.5-13.1,3.4-19.7,2.8c3.6,1.6,6.7,4.4,8.5,8c1.7,3.7,2.6,9.5-1.6,11.9c-4.6,2.4-8.1-3-9.8-6.5c-1.9-4-2.6-8.7-2.9-13.2
				c-0.2-5.1,0.5-10.1,2-15c1.3-4,3.1-8,6.1-11.3c2.7-3.1,7.1-6.5,11.5-5c2.2,0.7,3.7,2.6,3.9,4.9c0.2,2.3-0.8,4.5-1.9,6.5
				C334.4,173,328.9,179,322.3,183.2z M336.3,163.1c0.7-1.4,1.3-3.6,0.2-5c-1.1-1.3-3.1-1.3-4.6-0.8c-1.7,0.6-3.2,1.9-4.7,3.1
				c-1.3,1.4-2.4,2.9-3.5,4.5c-1.9,3.5-3.2,7.4-4,11.3c-0.4,2-0.6,4-0.7,5.9c0,0,0-0.1,0.1-0.1c0.8-0.5,1.7-1,2.4-1.6
				C328,176.3,333.3,170.1,336.3,163.1z M324.9,190.6c-1.3-1.1-2.8-2-4.3-2.5c-0.5-0.2-1-0.4-1.5-0.7c0.1,0.8,0.1,1.7,0.2,2.6
				c0.5,3.8,1.7,7.7,4,10.8c0.8,1.1,2.2,3.1,3.8,2.8c1.7-0.4,2.5-2.3,2.5-3.9C329.5,196.2,327.4,192.9,324.9,190.6z"/>
			<path class="st9" d="M366.7,184.3c-2.4,2.6-8,4.1-11.3,4.4c-0.1,0.2-0.1,0.4-0.2,0.7c-1.3,2.5-3.4,5.3-6.4,6.1
				c-3.1,1-5.7-1.1-7-3.8c-1-2.5-1.3-5.3,0.1-7.6c-1.1-1.6-1.7-3.5-1.4-5.6c0.5-2.9,2.9-5.6,5.5-6.9c2.7-1.3,6.1-1.3,8.4,0.8
				c2.1,2.1,2.6,5.6,2.6,8.3c0,1.7-0.2,3.4-0.7,5c2.3-0.2,6.6-1.7,8.5-3.9C365.9,181,368.2,182.7,366.7,184.3z M343.5,181.7
				c0.9,1.9,2.8,3.1,4.8,3.7c1.7,0.7,3.5,0.8,5.4,0.8c0.8-2.5,1.1-5.2,0.7-7.6c-0.4-2.2-1.1-4.4-3.5-5c-2.2-0.5-4.3,0.7-5.8,2.2
				C343.6,177.4,342.6,179.6,343.5,181.7z M352.5,188.8c-2.9-0.2-6.1-0.8-8.5-2.7c-0.8,1.7,0,4.3,1,5.7c0.5,0.8,1.4,1.5,2.6,1.4
				C349.7,192.9,351.4,190.7,352.5,188.8z"/>
			<path class="st9" d="M365,183.3c-0.3-4.2,0.1-8.6,0.8-12.6c0.6-3.7,1.5-7.4,2.9-10.9c0.7-1.7,1.5-3.5,2.5-5.2
				c0.9-1.6,2-3.2,3.4-4.4s3.5-2,5.2-0.9c1.4,0.7,1.8,2.3,1.9,3.7c0.2,1.6-0.4,3.2-0.8,4.8c-0.5,1.8-1.1,3.5-1.7,5.3
				c-2.6,6.8-6.6,13-11.6,18.3c0.1,0.6,0.1,1.1,0.1,1.6c0.4,14.9,14.5,14.6,20.3-1c0.2-0.7,1.3-0.8,1.8-0.5c0.7,0.4,0.8,1.2,0.5,1.9
				C382.5,201,366.3,201.2,365,183.3z M368,173.2c-0.2,1.4-0.4,2.8-0.4,4.3c4-4.7,7.1-10.2,9.3-16.1c0.6-1.5,1.1-3.1,1.5-4.6
				c0.4-1.3,0.7-2.8,0.5-4c-0.1-0.8-0.5-1.6-1.4-1.4c-1.4,0.5-2.4,2.2-3.2,3.3C370.6,160.3,369,166.9,368,173.2z"/>
			<path class="st9" d="M392.6,193c-2-0.9-3.3-2.9-4.1-5c-0.8-2.3-0.6-4.9-0.2-7.5c0.1-0.8,1-1.1,1.6-0.9c0.7,0.1,1.1,0.9,1,1.6
				c-0.4,2.2-0.4,4.6,0.4,6.7c0.7,1.6,1.9,2.8,3.6,3.1c1.7,0.5,3.7-0.1,5.2-0.9c3.4-1.7,6.4-4.7,8.5-7.9c0.4-0.6,1.1-0.9,1.9-0.5
				c0.5,0.3,0.8,1.3,0.4,1.7c-1.6,2.2-3.3,4.3-5.3,6C402.1,192.5,397.1,195.2,392.6,193z M389.9,172.4c1.7,0,1.7,2.7,0,2.7
				C388.1,175.1,388.1,172.4,389.9,172.4z"/>
			<path class="st9" d="M434.6,184.3c-2.4,2.6-8,4.1-11.3,4.4c-0.1,0.2-0.1,0.4-0.2,0.7c-1.3,2.5-3.4,5.3-6.4,6.1
				c-3.1,1-5.7-1.1-7-3.8c-1-2.5-1.3-5.3,0.1-7.6c-1.1-1.6-1.7-3.5-1.4-5.6c0.5-2.9,2.9-5.6,5.5-6.9c2.7-1.3,6.1-1.3,8.4,0.8
				c2.1,2.1,2.6,5.6,2.6,8.3c0,1.7-0.2,3.4-0.7,5c2.3-0.2,6.6-1.7,8.5-3.9C433.7,181,436.1,182.7,434.6,184.3z M411.4,181.7
				c0.9,1.9,2.8,3.1,4.8,3.7c1.7,0.7,3.5,0.8,5.4,0.8c0.8-2.5,1.1-5.2,0.7-7.6c-0.4-2.2-1.1-4.4-3.5-5c-2.2-0.5-4.3,0.7-5.8,2.2
				C411.5,177.4,410.5,179.6,411.4,181.7z M420.4,188.8c-2.9-0.2-6.1-0.8-8.5-2.7c-0.8,1.7,0,4.3,1,5.7c0.5,0.8,1.4,1.5,2.6,1.4
				C417.6,192.9,419.3,190.7,420.4,188.8z"/>
			<path class="st9" d="M437.7,195.9c-2.3,0-2.3-3.4,0-3.4S439.9,195.9,437.7,195.9z M440.6,155c-1.4,11-2,22.1-1.6,33.2
				c0,1.6-2.6,1.6-2.7,0c-0.3-11.2,0.3-22.2,1.6-33.2c0.1-0.6,0.5-1.2,1.4-1.2C439.9,153.8,440.7,154.4,440.6,155z"/>
		</g>
		<path id="Path_3595" class="st9" d="M165.7,153.7c-8.7,2.8,2.6,12.6,2.6,12.6l0,0c0.1-0.1,3.3-8.9-1.6-12.6"/>
		<path id="Path_3596" class="st10" d="M164.3,154.3c0,0-11.5-21.8-37.3-23.3"/>
	</g>
</g>
<path class="st9" d="M253.4,92.4c-1,9.1-2.5,18.2-4.7,27.8c-1.6,7.4-3.5,12.4-7.4,12.6c-2.9,0.2-6.3-2.7-9.2-11.2
	c-1,2.9-2,5.6-3.8,8.2c-1.1,1.6-2.1,3-3.8,4c-1.6,0.9-3.5,1.1-5-0.1c-7.3-5.6-6-26.4-5-34.3c0.1-0.7,0.4-1.1,1.1-1.1
	c0.6,0,1.1,0.6,1.1,1.1c-0.3,3.4-3.4,26.9,4.3,32.7c1.1,0.8,2.5,0,3.5-0.9c1.1-1.1,2-2.5,2.9-4c1.6-3,2.7-6.4,3.7-9.7
	c0.3-0.9,1.9-1.1,2.1,0c1.2,3.1,3.1,12.8,7.9,12.8c3.7,0,4.8-7.9,5.4-10.6c1.7-8.7,3.4-17.3,4.5-27.3c0.1-0.7,0.4-1.1,1.1-1.1
	C252.8,91.4,253.5,91.8,253.4,92.4z"/>
<path class="st9" d="M272.5,117.1c-2.8,3.6-12.5,8.3-16.8,1.2c-0.4-0.7-0.7-1.4-0.8-2.1c-0.6-2.9,0.8-6,3.4-7.4
	c1.3-0.8,3.1-1.1,4.6-0.6c1.6,0.6,2.9,2.3,2.4,4.1c-0.6,1.6-2.1,2.8-3.6,3.3c-1.4,0.5-3,0.7-4.5,0.3c0.1,0.6,0.3,1.1,0.7,1.6
	c3.4,5.5,10.9,1.6,13.4-2C271.9,114.6,273.7,115.7,272.5,117.1z M258,111.9c-0.3,0.6-0.7,1.1-0.8,1.7c0,0,0,0,0.1,0
	c1.3,0.3,2.8,0.3,4.1-0.3c0.7-0.4,2.2-1.2,1.8-2.3c-0.4-1.1-1.9-1.1-2.9-0.8C259.4,110.5,258.5,111.1,258,111.9z"/>
<path class="st9" d="M271.4,116.6c-0.2-3.4,0.1-7,0.7-10.3c0.5-3,1.2-6.1,2.4-8.9c0.6-1.4,1.2-2.9,2-4.3c0.7-1.3,1.6-2.6,2.8-3.6
	c1.1-1,2.9-1.6,4.3-0.7c1.1,0.6,1.5,1.9,1.6,3c0.2,1.3-0.3,2.6-0.7,3.9c-0.4,1.5-0.9,2.9-1.4,4.3c-2.1,5.6-5.4,10.6-9.5,15
	c0.1,0.5,0.1,0.9,0.1,1.3c0.3,12.2,11.9,11.9,16.6-0.8c0.2-0.6,1.1-0.7,1.5-0.4c0.6,0.3,0.7,1,0.4,1.6
	C285.7,131,272.4,131.2,271.4,116.6z M273.8,108.3c-0.2,1.1-0.3,2.3-0.3,3.5c3.3-3.8,5.8-8.3,7.6-13.2c0.5-1.2,0.9-2.5,1.2-3.8
	c0.3-1.1,0.6-2.3,0.4-3.3c-0.1-0.7-0.4-1.3-1.1-1.1c-1.1,0.4-2,1.8-2.6,2.7C276,97.7,274.7,103.1,273.8,108.3z"/>
<path class="st9" d="M314.5,116.6c-2,3.1-5,5.7-8.3,7.4c-3,1.6-6.5,2.6-9.9,1.8c-3.3-0.7-5.8-3.4-6.3-6.6c-0.6-3.4,0.9-6.9,3.9-8.5
	c2.9-1.8,7.1-1.3,8.8,2c0.7,1.3-1.2,2.4-1.9,1.1c-0.7-1.1-1.8-1.9-3.1-2c-1.6-0.1-2.9,0.7-4,1.7c-1.6,1.8-2.1,4.6-1.1,6.9
	c1.1,2.4,3.5,3.6,6.2,3.6c2.8-0.1,5.6-1.1,7.9-2.8c2.3-1.5,4.3-3.4,5.8-5.7C313.4,114.3,315.4,115.4,314.5,116.6z"/>
<path class="st9" d="M333.8,117.4c-2,2.1-6.5,3.4-9.2,3.6c-0.1,0.2-0.1,0.3-0.2,0.6c-1.1,2-2.8,4.3-5.2,5c-2.5,0.8-4.7-0.9-5.7-3.1
	c-0.8-2-1.1-4.3,0.1-6.2c-0.9-1.3-1.4-2.9-1.1-4.6c0.4-2.4,2.4-4.6,4.5-5.6c2.2-1.1,5-1.1,6.9,0.7c1.7,1.7,2.1,4.6,2.1,6.8
	c0,1.4-0.2,2.8-0.6,4.1c1.9-0.2,5.4-1.4,7-3.2C333.2,114.7,335,116.1,333.8,117.4z M314.8,115.3c0.7,1.6,2.3,2.5,3.9,3
	c1.4,0.6,2.9,0.7,4.4,0.7c0.7-2,0.9-4.3,0.6-6.2c-0.3-1.8-0.9-3.6-2.9-4.1c-1.8-0.4-3.5,0.6-4.7,1.8
	C314.9,111.7,314.1,113.5,314.8,115.3z M322.2,121.1c-2.4-0.2-5-0.7-7-2.2c-0.7,1.4,0,3.5,0.8,4.7c0.4,0.7,1.1,1.2,2.1,1.1
	C319.9,124.4,321.3,122.6,322.2,121.1z"/>
<path class="st9" d="M340.3,113c2.6,0.1,3.8,2.3,4.6,4.5c1.2,4.3,4.1-0.2,5.6-2c2.4-2.8,6.3-6.8,10.9-5.1c3.2,1.1,4.1,4.7,5.5,7.4
	c2.4,4,5.7,0.7,8.8-2.3c0.5-0.3,1.1-0.4,1.6,0.1c0.4,0.3,0.4,1.1,0,1.5c-3.1,3.1-8.8,7.8-12,2.1c-0.7-1.2-1.2-2.6-2-4
	c-0.6-1.2-1.4-2.4-2.9-2.9c-3.8-1.1-6.9,3-9.2,5.8c-0.7,0.8-1.8,2-2.9,2.9c-1.3,0.9-2.9,1.4-4.1-0.2c-0.8-1.1-1.1-3-1.9-4.3
	c-2.4-3.9-6.2,3.3-7.5,5.8c-0.5,1-2,0.4-2-0.6c-0.2-3.7-0.2-7.3-0.1-11c0.1-1.5,2.3-1.5,2.1,0c-0.1,2.4-0.1,4.6-0.1,7
	C336,116.2,337.7,113.2,340.3,113z"/>
<path class="st9" d="M393.2,117.1c-2.8,3.6-12.5,8.3-16.8,1.2c-0.4-0.7-0.7-1.4-0.8-2.1c-0.6-2.9,0.8-6,3.4-7.4
	c1.3-0.8,3.1-1.1,4.6-0.6c1.6,0.6,2.9,2.3,2.4,4.1c-0.6,1.6-2.1,2.8-3.6,3.3c-1.4,0.5-3,0.7-4.5,0.3c0.1,0.6,0.3,1.1,0.7,1.6
	c3.4,5.5,10.9,1.6,13.4-2C392.5,114.6,394.3,115.7,393.2,117.1z M378.6,111.9c-0.3,0.6-0.7,1.1-0.8,1.7c0,0,0,0,0.1,0
	c1.3,0.3,2.8,0.3,4.1-0.3c0.7-0.4,2.2-1.2,1.8-2.3c-0.4-1.1-1.9-1.1-2.9-0.8C380.1,110.5,379.2,111.1,378.6,111.9z"/>
<path class="st9" d="M415.1,128.1c-1.9,1.6-3.9,2.6-6.1,2.5c-8.7-0.7-3.9-21.3-3-25c-2,0-3.6-0.1-5.6-0.2c-1.4-0.1-1.1-2.1,0.3-2.1
	c2,0.1,3.8,0.2,5.8,0.2c0.6-2.8,2-7.6,2.9-10.7c0.2-0.6,1.1-0.8,1.6-0.7c0.5,0.2,0.9,0.7,0.7,1.4c-1.1,2.9-2.3,7-3,10l0.4-0.1
	c3.3-0.1,6.5-0.3,9.7-0.6c0.6-0.1,1,0.6,0.9,1.1c-0.1,0.7-0.7,1.1-1.3,1.1c-3.3,0.3-7,0.4-10.2,0.6c-1.1,3.5-5.5,24,2,22.8
	c1.3-0.2,2.5-0.9,3.6-1.8c2.3-1.9,4.1-4.3,5.4-7.2c0.6-1.3,2.5-0.5,1.8,0.9C419.8,123.3,417.8,125.9,415.1,128.1z"/>
<path class="st9" d="M440.3,121c-2,2.1-6.5,3.4-9.2,3.6c-0.1,0.2-0.1,0.3-0.2,0.6c-1.1,2-2.8,4.3-5.2,5c-2.5,0.8-4.7-0.9-5.7-3.1
	c-0.8-2-1.1-4.3,0.1-6.2c-0.9-1.3-1.4-2.9-1.1-4.6c0.4-2.4,2.4-4.6,4.5-5.6c2.2-1.1,5-1.1,6.9,0.7c1.7,1.7,2.1,4.6,2.1,6.8
	c0,1.4-0.2,2.8-0.6,4.1c1.9-0.2,5.4-1.4,7-3.2C439.7,118.3,441.6,119.7,440.3,121z M421.4,118.9c0.7,1.6,2.3,2.5,3.9,3
	c1.4,0.6,2.9,0.7,4.4,0.7c0.7-2,0.9-4.3,0.6-6.2c-0.3-1.8-0.9-3.6-2.9-4.1c-1.8-0.4-3.5,0.6-4.7,1.8
	C421.4,115.4,420.6,117.2,421.4,118.9z M428.7,124.7c-2.4-0.2-5-0.7-7-2.2c-0.7,1.4,0,3.5,0.8,4.7c0.4,0.7,1.1,1.2,2.1,1.1
	C426.4,128.1,427.8,126.3,428.7,124.7z"/>
</svg>
