<?xml version="1.0" encoding="utf-8"?>
<!-- Generator: Adobe Illustrator 26.3.1, SVG Export Plug-In . SVG Version: 6.00 Build 0)  -->
<svg version="1.1" id="Group_215" xmlns="http://www.w3.org/2000/svg" xmlns:xlink="http://www.w3.org/1999/xlink" x="0px" y="0px"
	 viewBox="0 0 715.9 245.6" style="enable-background:new 0 0 715.9 245.6;" xml:space="preserve">
<style type="text/css">
	.st0{fill:#3A3838;}
	.st1{fill:#262626;}
	.st2{fill:#7C5C47;}
	.st3{fill:#634839;}
	.st4{fill:#BC906F;}
	.st5{fill:#6C4A36;}
	.st6{fill:#EAE4E1;}
	.st7{fill:#282625;}
	.st8{enable-background:new    ;}
	.st9{fill:#FDC675;}
	.st10{fill:none;stroke:#FDC675;stroke-miterlimit:10;}
</style>
<g>
	<g id="Mask_Group_214">
		<path id="Path_3576" class="st0" d="M490.3,79.9c-1.8-4.3-4.2-8.3-7.2-11.9c-5.4-6.5-11.8-12.1-19.1-16.5
			c-9-5.6-18.6-10.2-28.6-13.6c-2.1-0.7-4.2-1.4-6-2c-0.1-0.9-0.3-1.8-0.6-2.7c-1.5-2.4-3.1-4.8-4.9-7c-7.5-9.4-17.4-16.5-28.7-20.5
			c-16.3-6.2-34-7.4-51-3.5c-11.9,2.4-23.1,7.7-32.6,15.3c-6,4.7-11,10.7-14.5,17.5c-0.4,0.9-1.2,1.6-2.1,1.9
			c-6.4,2-12.6,4.5-18.6,7.5c-8.2,3.9-15.9,8.9-22.7,14.8c-6.1,5.2-11.1,11.6-14.5,18.9c-3.2,7-4.2,14.8-2.8,22.3
			c1.3,6.7,4.2,13,8.4,18.4c6.5,8.8,15.1,14.9,24.7,19.7c0.5,0.2,0.9,0.4,1.4,0.5c0.8,0.3,1.7,0.6,2.6,0.7c0.3-0.1,1.3,0.1,1.4-0.2
			c0-0.5-0.2-1-0.5-1.3c-0.4-0.4-2.9-1.2-3.4-1.5c-5.7-3.4-11.2-7-16-11.6c-5-4.9-9.4-10.2-12.4-16.6c-4.1-8.6-4.5-18.5-0.9-27.4
			c1.5-3.9,3.6-7.5,6.2-10.8c4.3-5.5,9.4-10.2,15.1-14.2c9.1-6.3,19-11.3,29.4-14.9c19.2-6.9,39.1-10.3,59.4-11.3
			c20.4-1.1,40.8,0.5,60.7,4.8c13.4,2.8,26.4,7.2,38.7,13.2c8.4,4.1,16.2,9.3,23.1,15.6c4.7,4.2,8.6,9.3,11.6,14.9
			c2.3,4.3,3.6,9,4,13.9c0.4,7.3-1.4,14.5-5.2,20.8c-3,5-6.8,9.6-11.3,13.4c-7.6,6.7-18.8,12.1-28.1,16c-0.7,0.4-1.4,0.8-2,1.3
			c-1.1,0.9-2.1,2-1.8,2.7c0.5,1.2,3.4,0.9,4.7,0.3c1.2-0.6,5.8-2.1,7-2.7c7.1-3.5,13.8-7.8,20-12.8c6.8-5.6,12.5-12.1,16.4-20.1
			C494.4,101.5,494.7,90,490.3,79.9 M299.2,35.4c0.6-0.9,0.9-1.5,1.3-2c6.6-9.7,15.7-17.4,26.4-22.3c13.5-6.5,28.6-9.3,43.5-8.1
			c13.1,0.8,25.9,4.9,37,11.9c7.1,4.4,13.1,10.3,17.6,17.4c0.5,0.7,0.8,1.5,1.3,2.6C383.7,23.6,341.6,23.6,299.2,35.4"/>
		<path id="Path_3577" class="st1" d="M426.3,34.9c-42.6-11.3-84.7-11.3-127.2,0.5c0.6-0.9,0.9-1.5,1.3-2
			c6.6-9.7,15.7-17.4,26.4-22.3c13.5-6.5,28.6-9.3,43.5-8.1c13.1,0.8,25.9,4.9,37,11.9c7.1,4.4,13.1,10.3,17.6,17.4
			C425.4,33,425.8,33.8,426.3,34.9"/>
		<path id="Path_3578" class="st2" d="M465,113.8c-1.4-4.4-5.6-7.2-10.2-6.8c-0.6,0.1-1.2,0.1-1.9,0.2c-0.4-2.3-0.7-4.5-1.1-6.6
			c-2.8-12.9-9.3-23.7-18.4-33.1c-0.7-0.7-6.3-5.1-7.1-5.6c-3.8-2.4-3.9-2.6-10.1-6.5c-9.4-5.1-16.5-6.7-27.5-9.2
			c-5.9-1.2-11.8-2-17.8-2.1c-12.5-0.6-25.1,0.7-37.3,3.9c-0.5,0.2-1.1,0.3-1.7,0.3c-2.7,0.9-8.7,2.8-10.5,3.6
			c-6.5,3.1-8.3,3.6-14,8c-4.6,3.5-8.9,7.2-13.1,11.1c-9.5,9.1-16.7,19.8-20.6,32.5c-0.1,0.3-0.3,0.6-0.5,0.9
			c-2.1-0.8-2.2-0.9-3.6-0.5c-2.6,0.6-5,1.8-7.1,3.4c-1.7,1.2-2.6,3.2-2.4,5.3c0.1,2.3,0.9,4.5,2.3,6.3c0.8,1.1,1.9,1.9,3.2,2.3
			c1.8,0.5,3.7,0.5,5.6,0.1c0.1,5.8,1.2,11.5,3.2,16.9c0.2,0.5,0.3,0.9,0.5,1.3c4.4,11.2,12,19.9,21.8,26.7
			c14.7,10.2,31.3,14.6,49,15.8c6.2,0.4,12.3-0.3,18.4,0.2s12.3-0.6,18.4-1.8c18.4-3.5,35-11,49.3-23.4l0.7-0.6l2.5-2.3
			c0.4-0.5,0.9-1,1.3-1.4c1-1.2,2-2.4,3-3.6c0.7-0.9,1.4-1.8,2.1-2.7c0.6-0.9,1.2-1.8,1.8-2.7c3.9-5.8,6.6-12.2,8.2-19
			c0.1,0.4,2,0.3,2.5,0.4c0.7,0.2,1.5,0.2,2.2-0.1c3.2-0.9,6-2.8,7.9-5.5C465.4,118.1,465.8,115.8,465,113.8 M272.5,108.6
			c-0.9,4.1-1.3,8.4-1.2,12.6c-0.5-0.1-1.1-0.3-1.7-0.3c-0.2-0.1-0.5-0.2-0.7-0.2c-2.3-0.3-4.2-2-4.8-4.3c-0.3-1-0.6-2.1-0.8-3.1
			c-0.4-1.5,0.2-3,1.5-3.8c1.7-1.1,3.6-2.1,5.4-3c0.8-0.4,1.8-0.4,2.6,0.2C272.8,107.2,272.7,107.9,272.5,108.6 M450.4,116.3
			c-0.4,6.1-1.9,12-4.4,17.6c-0.3,0.6-0.5,1.2-0.8,1.8c0,0.1-0.1,0.2-0.2,0.4c-0.3,0.6-0.6,1.1-0.9,1.7v0.1c-0.3,0.5-0.5,1-0.8,1.5
			c-0.1,0.2-0.2,0.4-0.3,0.6c-0.7,1.1-1.3,2.3-2.1,3.4c-0.4,0.6-0.8,1.1-1.2,1.7l0,0c-0.4,0.5-0.8,1.1-1.2,1.6
			c-0.1,0.1-0.1,0.2-0.2,0.2c-0.4,0.5-0.8,1-1.2,1.5c0,0,0,0,0,0.1c-0.6,0.7-1.2,1.4-1.8,2.2s-1.2,1.4-1.9,2.1l-3.2,3.1
			c-0.8,0.8-1.3,1.2-1.7,1.7c-7.7,6.9-16.7,12.3-26.5,15.8c-11.1,4.1-22.8,6.5-34.7,6.9c-0.7,0-1.9,0.1-2.6,0c-0.9-0.1-3.6,0-4.5,0
			c-5,0.1-7.6,0.1-12.5-0.1c-16.9-0.7-32.9-4.8-47.3-14c-7.8-4.8-14.4-11.4-19.2-19.2c-7.1-11.2-9.5-24.7-6.6-37.7
			c0.1-0.4,0.2-0.7,0.2-1.1c0.5-2.4,1.2-4.7,2-7c3.2-9,8.3-17.2,14.9-24.1c3-3.3,6.2-6.4,9.7-9.2c5.4-4.3,11-8.4,17.4-11.3
			c6.7-3,13.8-5.3,21-6.8c9.7-2,19.6-2.9,29.5-2.5c14.5,0.5,28.5,3.1,41.9,9c8.3,3.5,15.8,8.8,21.8,15.6c1.5,1.8,3.2,3.3,4.8,5
			c0.3,0.3,0.5,0.6,0.7,0.9c7.8,10.6,12.1,22.4,11.9,35.7v0.2C450.5,114.5,450.4,115.4,450.4,116.3L450.4,116.3z M461.9,118
			c-0.5,0.6-1,1.1-1.6,1.6c-1.8,1.6-4,2.7-6.3,3.3c-0.9,0.3-1.8,0.9-2.4,1.7c0.9-4,1.4-8.1,1.4-12.2c0-0.5,0.1-1.1,0.1-1.6
			c1.1-0.3,2.2-0.5,3.3-0.5c2.6,0.2,4.8,1.8,5.8,4.2C462.9,115.6,462.7,117,461.9,118"/>
		<path id="Path_3579" class="st3" d="M449.4,113.5c-1-4.8-4.7-6.8-8.8-8.1c-1.5-0.4-3.1-0.2-4.4,0.4c-2.4,0.9-4.3,2.8-5.3,5.1
			c-0.5,1.1-0.9,2.2-1.3,3.3c-2.4,5.6-6.7,8.6-12.7,8.7c-5.7,0.1-11.3-1.2-16.4-3.9c-0.8-0.5-1.7-0.9-2.5-1.3c-1-0.4-1.6-0.1-1.7,1
			c-0.1,0.7-0.1,1.5-0.1,2.3c0,1.7,0.1,3.4,0.1,5.1c0,3.3-1.1,6.5-3.1,9.1c-2.9,3.9-6.7,5.5-11.4,4.6c-4-0.8-8-1.8-12-2.6
			c-1.3-0.3-2.6-0.4-3.9-0.7c-0.9-0.2-1.7-0.4-2.5-0.6c-2.7-0.8-4.3,0-5,2.7c-0.3,1.5-0.4,3-0.3,4.5c0.2,3.6-1.7,5.3-5.3,4.9
			c-4.4-0.4-8.2-3-10.3-6.9c-2.9-5.3-6.8-10-10.5-14.8c-0.7-1.1-1.9-2-3.1-2.4c-0.2,0.4-0.4,0.8-0.7,1.1c-1.9,2.3-4.1,4.3-6.6,5.8
			c-2.3,1.6-5.3,2-8,1.2c-6.6-1.9-10.6-6.6-11.2-13.4c-0.2-1.9-0.2-3.9-0.2-5.9c0.2-2.5-0.9-4.9-2.9-6.5c-1.3-1-2.6-2-3.9-3
			c-1.8-1.2-4-1.6-6.2-1.1c-2.8,0.5-10.8,4.8-12.8,7c-0.2,0.2-0.4,0.3-0.6,0.4c-0.1,0-0.2,0.1-0.4,0.1c-0.3-0.2-0.5-0.4-0.6-0.7
			c-2.8,12.9-0.5,26.5,6.6,37.7c4.9,7.8,11.4,14.4,19.2,19.2c14.4,9.2,30.4,13.3,47.3,14c5,0.2,7.5,0.2,12.5,0.1
			c0.9,0,3.6-0.1,4.5,0c0.7,0.1,1.9,0,2.6,0c11.9-0.4,23.6-2.8,34.7-6.9c9.7-3.5,18.7-8.9,26.4-15.8c0.5-0.4,0.9-0.9,1.7-1.7
			l3.2-3.1c5.2-5.5,9.4-11.9,12.5-18.8c2.5-5.6,4-11.5,4.4-17.6l0,0C450.3,116.1,449.4,113.7,449.4,113.5 M434,131.4
			c-1.1,2.2-2.4,4.4-3.7,6.5c-3.9,5.5-8.8,10.3-14.4,14c-0.6,0.4-1.1,0.9-1.7,1.4l0,0c-0.5,0.2-0.9,0.4-1.3,0.6
			c-10,6.2-21,10-32.5,12.2c-8.5,1.6-17.1,2.2-25.8,1.9c-14.9-0.6-29.1-3.7-42.4-10.6c-8.3-4.3-15.5-9.9-21.1-17.4
			c-0.5-0.7-1-1.4-1.5-2.2c-0.6-0.8-0.5-2,0.3-2.6l0.1-0.1c0.8-0.5,1.6-0.3,2.5,0.7c0.1,0.1,0.2,0.3,0.3,0.5
			c5.5,8,12.9,13.7,21.4,18.2c8.6,4.5,17.9,7.5,27.5,9.1c9.9,1.7,20,2.1,29.9,1.1c14.2-1.4,27.6-5.3,39.8-12.7
			c8.8-5.4,16-12.4,20.6-21.8c0.2-0.5,0.5-0.9,0.8-1.2c0.2-0.2,0.8-0.4,1-0.3c0.3,0.2,0.6,0.6,0.6,1
			C434.5,130.2,434.3,130.8,434,131.4"/>
		<path id="Path_3580" class="st4" d="M438.6,77.6c-0.2-0.3-0.4-0.6-0.7-0.9c-1.6-1.7-3.3-3.3-4.8-5c-6-6.8-13.4-12.1-21.8-15.6
			c-13.3-5.9-27.4-8.5-41.9-9c-9.9-0.4-19.8,0.5-29.5,2.5c-7.2,1.5-14.2,3.8-21,6.8c-6.4,2.9-12,7-17.4,11.3
			c-3.5,2.8-6.7,5.9-9.7,9.2c-6.6,6.9-11.6,15.2-14.9,24.1c-0.8,2.3-1.5,4.6-2,7c0.2-0.3,0.6-0.6,0.8-0.8
			c3.8-4.2,15.5-10.4,21.5-5.3c1.7,1.4,3.5,2.7,5.1,4.2c1.4,1.3,2.2,3.2,2.2,5.1c0.1,2,0.1,4,0.3,6c0.1,1.3,0.3,2.5,0.6,3.7
			c1.3,5,5,7.5,9.7,8.7c1.6,0.4,3.2,0.1,4.5-0.8c2.4-1.4,4.6-3.2,6.4-5.3c2-2.5,3.9-2.6,6.2-0.4c0.3,0.3,0.6,0.5,0.8,0.8
			c3.7,4.7,7.7,9.2,10.6,14.5c0.6,1.2,1.4,2.3,2.2,3.3c1.7,2.2,4.2,3.6,6.9,3.9c0.6,0.1,1.1,0,1.7-0.1c1.1-0.2,1.3-0.6,1.3-1.7
			c-0.1-1.3-0.1-2.5-0.1-3.8c0.1-1.1,0.3-2.1,0.7-3.1c1.5-3.7,3.7-4.3,6.3-3.8c3,0.6,5.8,1.5,8.8,2.1c4,0.9,8,1.6,12,2.3
			c2.4,0.4,4.7-0.5,6.3-2.2c2.6-2.4,4-5.8,4.1-9.3c0-2.1-0.1-4.2-0.1-6.2c0-4.3,2.3-5.7,6.2-3.8c3.7,2,7.6,3.3,11.8,4
			c2.2,0.3,4.4,0.4,6.6,0.2c3.6-0.2,6.7-2.3,8.3-5.5c0.7-1.3,1.2-2.8,1.8-4.2c1.5-3.9,4.9-6.8,9-7.5c1-0.2,2.1-0.2,3.2,0
			c3.2,0.7,6.1,2.5,8.2,5.1c1,1.5,1.7,3.2,1.9,5C450.7,100.1,446.4,88.2,438.6,77.6 M337.2,69c-1.3,0.8-2.7,1.5-4.2,2
			c-3.6,1-7.4,1.5-11.2,1.3c-1,0.1-1.9-0.2-2.7-0.8c0.4-0.5,0.7-1,1.1-1.4c0.4-0.6,0.8-1.1,1.3-1.6c3.9-2.9,8.2-4.7,13.2-4.5
			c0.6,0,1.2,0.1,1.9,0.3c1,0.2,1.8,1.1,1.9,2.1C338.5,67.5,338.1,68.5,337.2,69 M370.3,122.5c-0.3,2.1-1.7,3.8-3.7,4.4
			c-2.8,0.9-5.7,1.2-8.6,0.9c-1.6-0.1-3.1-0.1-4.7-0.3c-0.9-0.1-1.7-0.3-2.5-0.7c-1.4-0.6-2-2.1-1.6-3.5c0.4-1.7,0.8-3.4,1.4-5.1
			c1.3-3.3,2.7-6.5,4.1-9.8c0.3-0.6,0.5-1.5,1.4-1.2s0.5,1.2,0.3,1.8c-0.9,2.7-1.8,5.4-2.6,8.1c-0.6,1.8-1,3.6-1.5,5.4
			c-0.1,0.5-0.1,1-0.2,1.5c0.3,0.1,0.6,0.2,1,0.3c3.1,0.1,6.2,0.3,9.2,0.4c1.1,0,2.2-0.2,3.3-0.5c0.9-0.2,1.6-0.8,1.9-1.7
			c0.4-1-0.1-1.7-1.1-1.5c-0.6,0.1-1.2,0.3-1.8,0.5c-0.6-1.8,0.2-3,2-3.2c1.9-0.2,3.5,1.2,3.7,3
			C370.4,121.9,370.4,122.2,370.3,122.5 M415.9,71.6c-2.1,0.4-4.3,0.3-6.3-0.5c-1.2-0.4-2.3-1-3.4-1.5c-0.5-0.2-1-0.3-1.7-0.6
			c-0.1-0.2-0.1-0.3-0.2-0.5c-1-2.2-0.2-3.7,2.1-4c0.9-0.2,1.9-0.2,2.8,0c1.7,0.4,3.3,0.8,4.9,1.3c1.3,0.4,2.5,1.3,3.2,2.5
			C418.1,70,417.7,71.1,415.9,71.6"/>
		<path id="Path_3581" class="st4" d="M272.9,106.6c-0.1,0.6-0.2,1.3-0.4,2c-0.9,4.1-1.3,8.4-1.2,12.6c-0.5-0.1-1.1-0.3-1.7-0.3
			c-0.2-0.1-0.5-0.2-0.7-0.2c-2.3-0.3-4.2-2-4.8-4.3c-0.3-1-0.6-2.1-0.8-3.1c-0.4-1.5,0.2-3,1.5-3.8c1.7-1.1,3.6-2.1,5.4-3
			C271.1,105.9,272.1,106,272.9,106.6"/>
		<path id="Path_3582" class="st1" d="M271.6,121.3c-0.1,0-0.2,0.1-0.3,0.1v-0.2C271.4,121.2,271.5,121.2,271.6,121.3"/>
		<path id="Path_3583" class="st1" d="M451.5,124.9c0-0.1,0-0.2,0.1-0.3C451.6,124.7,451.6,124.8,451.5,124.9"/>
		<path id="Path_3584" class="st4" d="M461.8,118c-0.5,0.6-1,1.1-1.6,1.6c-1.8,1.6-4,2.7-6.3,3.3c-0.9,0.3-1.8,0.9-2.4,1.7
			c0.9-4,1.4-8.1,1.4-12.2c0-0.5,0.1-1.1,0.1-1.6c1.1-0.3,2.2-0.5,3.3-0.5c2.6,0.2,4.8,1.8,5.8,4.2C462.9,115.6,462.7,117,461.8,118
			"/>
		<path id="Path_3585" class="st1" d="M484.7,113.2c-3,5-6.8,9.6-11.3,13.4c-7.6,6.7-18.8,12.1-28.1,16c-0.7,0.4-1.4,0.8-2,1.3
			c3.9-5.8,6.6-12.2,8.2-19c0.1,0.4,2,0.3,2.5,0.4c0.7,0.2,1.5,0.2,2.2-0.1c3.2-0.9,6-2.8,7.9-5.5c1.3-1.7,1.6-3.9,0.9-5.9
			c-1.4-4.4-5.6-7.2-10.2-6.8c-0.6,0.1-1.2,0.1-1.9,0.2c-0.4-2.3-0.7-4.5-1.1-6.6c-2.8-12.9-9.3-23.7-18.4-33.1
			c-0.7-0.7-6.3-5.1-7.1-5.6c-3.8-2.4-3.9-2.6-10.1-6.5c-9.4-5.1-16.5-6.7-27.5-9.2c-5.9-1.2-11.8-2-17.8-2.1
			c-12.5-0.6-25.1,0.7-37.3,3.9c-0.5,0.2-1.1,0.3-1.7,0.3c-2.7,0.9-8.7,2.8-10.5,3.6c-6.5,3.1-8.3,3.6-14,8
			c-4.6,3.5-8.9,7.2-13.1,11.1c-9.5,9.1-16.7,19.8-20.6,32.5c-0.1,0.3-0.3,0.6-0.5,0.9c-2.1-0.8-2.2-0.9-3.6-0.5
			c-2.6,0.6-5,1.8-7.1,3.4c-1.7,1.2-2.6,3.2-2.4,5.3c0.1,2.3,0.9,4.5,2.3,6.3c0.8,1.1,1.9,1.9,3.2,2.3c1.8,0.5,3.7,0.5,5.6,0.1
			c0.1,5.8,1.2,11.5,3.1,16.9c-0.4-0.4-2.9-1.2-3.4-1.5c-5.7-3.4-11.2-7-16-11.6c-5-4.9-9.4-10.2-12.4-16.6
			c-4.1-8.6-4.5-18.5-0.9-27.4c1.5-3.9,3.6-7.5,6.2-10.8c4.3-5.5,9.4-10.2,15.1-14.2c9.1-6.3,19-11.3,29.4-14.9
			c19.2-6.9,39.1-10.3,59.4-11.3c20.4-1.1,40.8,0.5,60.7,4.8c13.4,2.8,26.4,7.2,38.7,13.2c8.4,4.1,16.2,9.3,23.1,15.6
			c4.7,4.2,8.6,9.3,11.6,14.9c2.3,4.3,3.6,9,4,13.9C490.3,99.7,488.5,107,484.7,113.2"/>
		<path id="Path_3586" class="st5" d="M450.4,116.3c-0.1-0.2-1-2.6-1-2.8c-1-4.8-4.7-6.8-8.8-8.1c-1.5-0.4-3.1-0.2-4.4,0.4
			c-2.4,0.9-4.3,2.8-5.3,5.1c-0.5,1.1-0.9,2.2-1.3,3.3c-2.4,5.6-6.7,8.6-12.7,8.7c-5.7,0.1-11.3-1.2-16.4-3.9
			c-0.8-0.5-1.7-0.9-2.5-1.3c-1-0.4-1.6-0.1-1.7,1c-0.1,0.7-0.1,1.5-0.1,2.3c0,1.7,0.1,3.4,0.1,5.1c0,3.3-1.1,6.5-3.1,9.1
			c-2.9,3.9-6.7,5.5-11.4,4.6c-4-0.8-8-1.8-12-2.6c-1.3-0.3-2.6-0.4-3.9-0.7c-0.9-0.2-1.7-0.4-2.5-0.6c-2.7-0.8-4.3,0-5,2.7
			c-0.3,1.5-0.4,3-0.3,4.5c0.2,3.6-1.7,5.3-5.3,4.9c-4.4-0.4-8.2-3-10.3-6.9c-2.9-5.3-6.8-10-10.5-14.8c-0.7-1.1-1.9-2-3.1-2.4
			c-0.2,0.4-0.4,0.8-0.7,1.1c-1.9,2.3-4.1,4.3-6.6,5.8c-2.3,1.6-5.3,2-8,1.2c-6.6-1.9-10.6-6.6-11.2-13.4c-0.2-1.9-0.2-3.9-0.2-5.9
			c0.2-2.5-0.9-4.9-2.9-6.5c-1.3-1-2.6-2-3.9-3c-1.8-1.2-4-1.6-6.2-1.1c-2.8,0.5-10.8,4.8-12.8,7c-0.2,0.2-0.4,0.3-0.6,0.4
			c-0.1,0-0.2,0.1-0.4,0.1c-0.3-0.2-0.5-0.4-0.6-0.7c-0.1-0.2-0.1-0.5,0-0.7c0-0.1,0.1-0.2,0.2-0.3c0.2-0.3,0.6-0.6,0.8-0.8
			c3.8-4.2,15.5-10.4,21.5-5.3c1.7,1.4,3.5,2.7,5.1,4.2c1.4,1.3,2.2,3.2,2.2,5.1c0.1,2,0.1,4,0.3,6c0.1,1.3,0.3,2.5,0.6,3.7
			c1.3,5,5,7.5,9.7,8.7c1.6,0.4,3.2,0.1,4.5-0.8c2.4-1.4,4.6-3.2,6.4-5.3c2-2.5,3.9-2.6,6.2-0.4c0.3,0.3,0.6,0.5,0.8,0.8
			c3.7,4.7,7.7,9.2,10.6,14.5c0.6,1.2,1.4,2.3,2.2,3.3c1.7,2.2,4.2,3.6,6.9,3.9c0.6,0.1,1.1,0,1.7-0.1c1.1-0.2,1.3-0.6,1.3-1.7
			c-0.1-1.3-0.1-2.5-0.1-3.8c0.1-1.1,0.3-2.1,0.7-3.1c1.5-3.7,3.7-4.3,6.3-3.8c3,0.6,5.8,1.5,8.8,2.1c4,0.9,8,1.6,12,2.3
			c2.4,0.4,4.7-0.5,6.3-2.2c2.6-2.4,4-5.8,4.1-9.3c0-2.1-0.1-4.2-0.1-6.2c0-4.3,2.3-5.7,6.2-3.8c3.7,2,7.6,3.3,11.8,4
			c2.2,0.3,4.4,0.4,6.6,0.2c3.6-0.2,6.7-2.3,8.3-5.5c0.7-1.3,1.2-2.8,1.8-4.2c1.5-3.9,4.9-6.8,9-7.5c1-0.2,2.1-0.2,3.2,0
			c3.2,0.7,6.1,2.5,8.2,5.1c1,1.5,1.7,3.2,1.9,5l0,0C450.7,114.3,450.6,115.3,450.4,116.3"/>
		<path id="Path_3587" class="st4" d="M434.5,129.6c0,0.6-0.2,1.2-0.5,1.8c-1.1,2.2-2.4,4.4-3.7,6.5c-3.9,5.5-8.8,10.3-14.4,14
			c-0.6,0.4-1.1,0.9-1.7,1.4l0,0c-0.5,0.2-0.9,0.4-1.3,0.6c-10,6.2-21,10-32.5,12.2c-8.5,1.6-17.1,2.2-25.8,1.9
			c-14.9-0.6-29.1-3.7-42.4-10.6c-8.3-4.3-15.5-9.9-21.1-17.4c-0.5-0.7-1-1.4-1.5-2.2c-0.6-0.8-0.5-2,0.3-2.6l0.1-0.1
			c0.8-0.5,1.6-0.3,2.5,0.7c0.1,0.1,0.2,0.3,0.3,0.5c5.5,8,12.9,13.7,21.4,18.2c8.6,4.5,17.9,7.5,27.5,9.1c9.9,1.7,20,2.1,29.9,1.1
			c14.2-1.4,27.6-5.3,39.8-12.7c8.8-5.4,16-12.4,20.6-21.8c0.2-0.5,0.5-0.9,0.8-1.2c0.2-0.2,0.8-0.4,1-0.3
			C434.3,128.8,434.5,129.2,434.5,129.6"/>
		<path id="Path_3588" class="st2" d="M370.3,122.5c-0.3,2.1-1.7,3.8-3.7,4.4c-2.8,0.9-5.7,1.2-8.6,0.9c-1.6-0.1-3.1-0.1-4.7-0.3
			c-0.9-0.1-1.7-0.3-2.5-0.7c-1.4-0.6-2-2.1-1.6-3.5c0.4-1.7,0.8-3.4,1.4-5.1c1.3-3.3,2.7-6.5,4.1-9.8c0.3-0.6,0.5-1.5,1.4-1.2
			s0.5,1.2,0.3,1.8c-0.9,2.7-1.8,5.4-2.6,8.1c-0.6,1.8-1,3.6-1.5,5.4c-0.1,0.5-0.1,1-0.2,1.5c0.3,0.1,0.6,0.2,1,0.3
			c3.1,0.1,6.2,0.3,9.2,0.4c1.1,0,2.2-0.2,3.3-0.5c0.9-0.2,1.6-0.8,1.9-1.7c0.4-1-0.1-1.7-1.1-1.5c-0.6,0.1-1.2,0.3-1.8,0.5
			c-0.6-1.8,0.2-3,2-3.2c1.9-0.2,3.5,1.2,3.7,3C370.4,121.9,370.4,122.2,370.3,122.5"/>
		<path id="Path_3589" class="st2" d="M338.3,66.6c-0.1-1-0.9-1.9-1.9-2.1c-0.6-0.2-1.2-0.3-1.8-0.3c-5-0.2-9.2,1.6-13.2,4.5
			c-0.5,0.5-0.9,1-1.3,1.6c-0.4,0.5-0.7,0.9-1.1,1.4c0.8,0.5,1.8,0.8,2.7,0.8c3.8,0.2,7.6-0.3,11.2-1.3c1.5-0.5,2.9-1.2,4.2-2
			C338.1,68.5,338.5,67.5,338.3,66.6"/>
		<path id="Path_3590" class="st2" d="M417.2,68.3c-0.7-1.2-1.8-2.1-3.2-2.5c-1.6-0.5-3.2-1-4.9-1.3c-0.9-0.2-1.9-0.2-2.8,0
			c-2.4,0.4-3.1,1.8-2.1,4c0.1,0.2,0.2,0.4,0.2,0.5c0.7,0.2,1.2,0.3,1.7,0.6c1.1,0.5,2.3,1.1,3.4,1.5c2,0.8,4.2,1,6.3,0.5
			C417.7,71.1,418.2,70,417.2,68.3"/>
		<path id="Path_3591" class="st6" d="M327.3,92.4c-0.3-0.7-0.5-1.5-0.8-2.2s-0.6-1.4-1-2.4h3.3C330.2,90.3,329.8,91.5,327.3,92.4"
			/>
		<path id="Path_3592" class="st7" d="M327.3,92.4c-0.3-0.7-0.5-1.5-0.8-2.2s-0.6-1.4-1-2.4h3.3C330.2,90.3,329.8,91.5,327.3,92.4"
			/>
		<path id="Path_3593" class="st6" d="M408,88.1c-1.2-0.7-1.3-1.8-0.8-3.2c1.5,0.9,3.5,0.6,4.4,2.5C410.8,88.6,409.2,88.9,408,88.1"
			/>
		<path id="Path_3594" class="st7" d="M411.6,87.4c-0.8,1.1-2.4,1.4-3.6,0.7c-1.2-0.7-1.3-1.8-0.8-3.2
			C408.7,85.8,410.8,82.7,411.6,87.4"/>
		<g class="st8">
			<path class="st9" d="M48.6,192.5c-1.2,11.1-3.1,22.3-5.7,34c-2,9-4.3,15.1-9.1,15.4c-3.6,0.2-7.7-3.3-11.2-13.7
				c-1.2,3.5-2.5,6.9-4.6,10c-1.3,1.9-2.6,3.7-4.6,4.9c-1.9,1.1-4.3,1.3-6.1-0.1c-8.9-6.8-7.3-32.3-6.1-41.9
				c0.1-0.8,0.5-1.4,1.3-1.4c0.7,0,1.4,0.7,1.4,1.4C3.5,205.3-0.3,234,9.1,241c1.4,1,3.1,0,4.3-1.1c1.4-1.4,2.5-3.1,3.5-4.9
				c2-3.7,3.3-7.8,4.5-11.8c0.4-1.1,2.3-1.3,2.6,0c1.5,3.8,3.8,15.7,9.7,15.7c4.5,0,5.9-9.7,6.6-13c2.1-10.6,4.2-21.1,5.5-33.4
				c0.1-0.8,0.5-1.4,1.4-1.4C47.9,191.2,48.7,191.8,48.6,192.5z"/>
			<path class="st9" d="M72,222.7c-3.4,4.4-15.3,10.2-20.5,1.5c-0.5-0.8-0.8-1.7-1-2.6c-0.7-3.5,1-7.3,4.1-9.1
				c1.6-1,3.8-1.3,5.6-0.7c2,0.7,3.5,2.8,2.9,5c-0.7,2-2.6,3.4-4.4,4c-1.7,0.6-3.7,0.8-5.5,0.4c0.1,0.7,0.4,1.3,0.8,2
				c4.1,6.7,13.3,2,16.4-2.4C71.2,219.6,73.4,220.9,72,222.7z M54.2,216.3c-0.4,0.7-0.8,1.3-1,2.1c0,0,0,0,0.1,0
				c1.6,0.4,3.4,0.4,5-0.4c0.9-0.5,2.7-1.5,2.2-2.8s-2.3-1.3-3.5-1C56,214.6,54.9,215.3,54.2,216.3z"/>
			<path class="st9" d="M70.6,222c-0.3-4.2,0.1-8.6,0.8-12.6c0.6-3.7,1.5-7.4,2.9-10.9c0.7-1.7,1.5-3.5,2.5-5.2
				c0.9-1.6,2-3.2,3.4-4.4s3.5-2,5.2-0.9c1.4,0.7,1.8,2.3,1.9,3.7c0.2,1.6-0.4,3.2-0.8,4.8c-0.5,1.8-1.1,3.5-1.7,5.3
				c-2.6,6.8-6.6,13-11.6,18.3c0.1,0.6,0.1,1.1,0.1,1.6c0.4,14.9,14.5,14.6,20.3-1c0.2-0.7,1.3-0.8,1.8-0.5c0.7,0.4,0.8,1.2,0.5,1.9
				C88.1,239.7,71.9,239.9,70.6,222z M73.6,211.9c-0.2,1.4-0.4,2.8-0.4,4.3c4-4.7,7.1-10.2,9.3-16.1c0.6-1.5,1.1-3.1,1.5-4.6
				c0.4-1.3,0.7-2.8,0.5-4c-0.1-0.8-0.5-1.6-1.4-1.4c-1.4,0.5-2.4,2.2-3.2,3.3C76.2,199,74.6,205.6,73.6,211.9z"/>
			<path class="st9" d="M123.3,222c-2.5,3.8-6.1,7-10.1,9.1c-3.7,1.9-8,3.2-12.1,2.2c-4-0.8-7.1-4.1-7.7-8.1
				c-0.7-4.1,1.1-8.4,4.8-10.4c3.5-2.2,8.7-1.6,10.7,2.4c0.8,1.6-1.5,2.9-2.3,1.4c-0.8-1.4-2.2-2.3-3.8-2.4
				c-1.9-0.1-3.6,0.8-4.9,2.1c-2,2.2-2.6,5.6-1.3,8.4c1.4,2.9,4.3,4.4,7.6,4.4c3.4-0.1,6.8-1.4,9.7-3.4c2.8-1.8,5.3-4.2,7.1-7
				C122,219.2,124.4,220.6,123.3,222z"/>
			<path class="st9" d="M146.9,223c-2.4,2.6-8,4.1-11.3,4.4c-0.1,0.2-0.1,0.4-0.2,0.7c-1.3,2.5-3.4,5.3-6.4,6.1
				c-3.1,1-5.7-1.1-7-3.8c-1-2.5-1.3-5.3,0.1-7.6c-1.1-1.6-1.7-3.5-1.4-5.6c0.5-2.9,2.9-5.6,5.5-6.9c2.7-1.3,6.1-1.3,8.4,0.8
				c2.1,2.1,2.6,5.6,2.6,8.3c0,1.7-0.2,3.4-0.7,5c2.3-0.2,6.6-1.7,8.5-3.9C146.1,219.7,148.4,221.4,146.9,223z M123.7,220.4
				c0.9,1.9,2.8,3.1,4.8,3.7c1.7,0.7,3.5,0.8,5.4,0.8c0.8-2.5,1.1-5.2,0.7-7.6c-0.4-2.2-1.1-4.4-3.5-5c-2.2-0.5-4.3,0.7-5.8,2.2
				C123.8,216.1,122.8,218.3,123.7,220.4z M132.7,227.5c-2.9-0.2-6.1-0.8-8.5-2.7c-0.8,1.7,0,4.3,1,5.7c0.5,0.8,1.4,1.5,2.6,1.4
				C129.9,231.6,131.6,229.4,132.7,227.5z"/>
			<path class="st9" d="M154.8,217.6c3.2,0.1,4.7,2.8,5.6,5.5c1.5,5.3,5-0.2,6.8-2.5c2.9-3.4,7.7-8.3,13.3-6.2
				c3.9,1.4,5,5.7,6.7,9.1c2.9,4.9,7,0.8,10.7-2.8c0.6-0.4,1.4-0.5,1.9,0.1c0.5,0.4,0.5,1.3,0,1.8c-3.8,3.8-10.7,9.5-14.7,2.6
				c-0.9-1.5-1.5-3.2-2.4-4.9c-0.7-1.5-1.7-2.9-3.5-3.5c-4.6-1.4-8.4,3.7-11.3,7.1c-0.9,1-2.2,2.5-3.6,3.5c-1.6,1.1-3.6,1.7-5-0.3
				c-1-1.4-1.3-3.7-2.3-5.2c-2.9-4.8-7.6,4-9.2,7.1c-0.6,1.2-2.4,0.5-2.4-0.7c-0.2-4.5-0.2-8.9-0.1-13.4c0.1-1.8,2.8-1.8,2.6,0
				c-0.1,2.9-0.1,5.6-0.1,8.5C149.6,221.5,151.7,217.9,154.8,217.6z"/>
			<path class="st9" d="M219.5,222.7c-3.4,4.4-15.3,10.2-20.5,1.5c-0.5-0.8-0.8-1.7-1-2.6c-0.7-3.5,1-7.3,4.1-9.1
				c1.6-1,3.8-1.3,5.6-0.7c2,0.7,3.5,2.8,2.9,5c-0.7,2-2.6,3.4-4.4,4c-1.7,0.6-3.7,0.8-5.5,0.4c0.1,0.7,0.4,1.3,0.8,2
				c4.1,6.7,13.3,2,16.4-2.4C218.6,219.6,220.8,220.9,219.5,222.7z M201.6,216.3c-0.4,0.7-0.8,1.3-1,2.1c0,0,0,0,0.1,0
				c1.6,0.4,3.4,0.4,5-0.4c0.9-0.5,2.7-1.5,2.2-2.8s-2.3-1.3-3.5-1C203.4,214.6,202.4,215.3,201.6,216.3z"/>
			<path class="st9" d="M252.5,231.7c-2.3,2-4.8,3.2-7.4,3.1c-10.6-0.9-4.8-26-3.7-30.5c-2.5,0-4.4-0.1-6.9-0.2
				c-1.7-0.1-1.3-2.6,0.4-2.6c2.5,0.1,4.6,0.2,7.1,0.2c0.7-3.4,2.4-9.3,3.6-13.1c0.2-0.7,1.3-1,1.9-0.8c0.6,0.3,1.1,0.9,0.8,1.7
				c-1.3,3.5-2.8,8.6-3.7,12.2l0.5-0.1c4-0.1,7.9-0.4,11.8-0.7c0.7-0.1,1.2,0.7,1.1,1.3c-0.1,0.8-0.8,1.3-1.6,1.4
				c-4,0.4-8.6,0.5-12.5,0.7c-1.3,4.3-6.7,29.3,2.5,27.9c1.6-0.3,3.1-1.1,4.4-2.2c2.8-2.3,5-5.3,6.6-8.8c0.7-1.6,3-0.6,2.2,1.1
				C258.2,225.8,255.8,228.9,252.5,231.7z"/>
			<path class="st9" d="M283.3,223c-2.4,2.6-8,4.1-11.3,4.4c-0.1,0.2-0.1,0.4-0.2,0.7c-1.3,2.5-3.4,5.3-6.4,6.1
				c-3.1,1-5.7-1.1-7-3.8c-1-2.5-1.3-5.3,0.1-7.6c-1.1-1.6-1.7-3.5-1.4-5.6c0.5-2.9,2.9-5.6,5.5-6.9c2.7-1.3,6.1-1.3,8.4,0.8
				c2.1,2.1,2.6,5.6,2.6,8.3c0,1.7-0.2,3.4-0.7,5c2.3-0.2,6.6-1.7,8.5-3.9C282.5,219.7,284.8,221.4,283.3,223z M260.1,220.4
				c0.9,1.9,2.8,3.1,4.8,3.7c1.7,0.7,3.5,0.8,5.4,0.8c0.8-2.5,1.1-5.2,0.7-7.6c-0.4-2.2-1.1-4.4-3.5-5c-2.2-0.5-4.3,0.7-5.8,2.2
				C260.2,216.1,259.2,218.3,260.1,220.4z M269.1,227.5c-2.9-0.2-6.1-0.8-8.5-2.7c-0.8,1.7,0,4.3,1,5.7c0.5,0.8,1.4,1.5,2.6,1.4
				C266.3,231.6,268,229.4,269.1,227.5z"/>
			<path class="st9" d="M332.4,212.2c-1.8,6.2-5.3,11.8-10.6,15.5c-4.6,3.1-10.3,4.4-15.6,3.1c0.3,4,0.7,7.8,1.1,11.6
				c0.1,0.8-0.7,1.4-1.3,1.4c-0.7,0-1.1-0.6-1.2-1.4c-0.5-3.2-0.8-6.7-1.1-10.1c-0.1-0.8-0.1-1.6-0.1-2.4c-0.2-0.1-0.5-0.1-0.7-0.2
				c-0.7-0.3-0.8-1.3-0.5-1.9c0.3-0.3,0.5-0.5,1-0.6c-0.7-10.1-1-20.3-0.5-30.5c0-1.8,2.7-1.8,2.6,0c-0.1,3.4-0.1,6.8-0.1,10
				c0,3,0.1,5.9,0.1,8.9c1.3-4,3.2-8,5.7-11.6c3.5-5,8.8-11,15.7-9.5C334.5,196.4,334,206.3,332.4,212.2z M329.9,200.3
				c-1-2.4-3.5-3.3-6.1-3.2c-2.7,0.2-5.2,2.1-7,4c-2,2.2-3.8,4.7-5.3,7.3c-3,5.3-4.9,11.2-5.6,17.3c0,0.2-0.1,0.3-0.1,0.4
				c0,0.7,0.1,1.4,0.1,2c5.6,1.6,11.7-0.2,16-3.8c4.4-3.9,7.1-9.3,8.3-14.9C330.8,206.6,331.1,203.1,329.9,200.3z"/>
			<path class="st9" d="M364.1,230.7c4-2.1,7.3-6.3,9.2-10.1c0.7-1.6,3.1-0.1,2.3,1.4c-2.6,5-7.2,10-12.8,12.2
				c-7.9,3.2-10.9-3.6-11-10c-0.6,0.8-1.4,1.9-2,2.6c-2.6,2.9-6.1,5.2-10,4.3c-1.7-0.4-3.5-1.5-4.2-3.1c-0.8-1.8-0.8-3.9-0.2-5.7
				c2.2-6.9,10.7-10.4,17.4-8.3c0.7,0.2,1,0.8,1,1.4c0.2-0.5,0.3-0.8,0.4-1.3c0.5-1.6,3-0.9,2.6,0.8
				C353.5,221.2,352.3,236.9,364.1,230.7z M353.1,216.2c-0.2,0.4-0.7,0.6-1.3,0.4c-3.1-0.9-6.3-0.6-9.2,0.9
				c-2.4,1.4-4.5,3.5-5.1,6.4c-0.3,1.3-0.2,2.7,0.7,3.7c0.8,1,2.3,1.3,3.6,1.3c3.1-0.3,5.5-3.2,7.3-5.5
				C350.8,221.1,352.2,218.7,353.1,216.2z"/>
			<path class="st9" d="M401.7,230.7c4-2.1,7.3-6.3,9.2-10.1c0.7-1.6,3.1-0.1,2.3,1.4c-2.6,5-7.2,10-12.8,12.2
				c-7.9,3.2-10.9-3.6-11-10c-0.6,0.8-1.4,1.9-2,2.6c-2.6,2.9-6.1,5.2-10,4.3c-1.7-0.4-3.5-1.5-4.2-3.1c-0.8-1.8-0.8-3.9-0.2-5.7
				c2.2-6.9,10.7-10.4,17.4-8.3c0.7,0.2,1,0.8,1,1.4c0.2-0.5,0.3-0.8,0.4-1.3c0.5-1.6,3-0.9,2.6,0.8
				C391.1,221.2,389.9,236.9,401.7,230.7z M390.8,216.2c-0.2,0.4-0.7,0.6-1.3,0.4c-3.1-0.9-6.3-0.6-9.2,0.9
				c-2.4,1.4-4.5,3.5-5.1,6.4c-0.3,1.3-0.2,2.7,0.7,3.7c0.8,1,2.3,1.3,3.6,1.3c3.1-0.3,5.5-3.2,7.3-5.5
				C388.4,221.1,389.8,218.7,390.8,216.2z"/>
			<path class="st9" d="M410.8,222c-0.3-4.2,0.1-8.6,0.8-12.6c0.6-3.7,1.5-7.4,2.9-10.9c0.7-1.7,1.5-3.5,2.5-5.2
				c0.9-1.6,2-3.2,3.4-4.4s3.5-2,5.2-0.9c1.4,0.7,1.8,2.3,1.9,3.7c0.2,1.6-0.4,3.2-0.8,4.8c-0.5,1.8-1.1,3.5-1.7,5.3
				c-2.6,6.8-6.6,13-11.6,18.3c0.1,0.6,0.1,1.1,0.1,1.6c0.4,14.9,14.5,14.6,20.3-1c0.2-0.7,1.3-0.8,1.8-0.5c0.7,0.4,0.8,1.2,0.5,1.9
				C428.3,239.7,412.1,239.9,410.8,222z M413.8,211.9c-0.2,1.4-0.4,2.8-0.4,4.3c4-4.7,7.1-10.2,9.3-16.1c0.6-1.5,1.1-3.1,1.5-4.6
				c0.4-1.3,0.7-2.8,0.5-4c-0.1-0.8-0.5-1.6-1.4-1.4c-1.4,0.5-2.4,2.2-3.2,3.3C416.4,199,414.8,205.6,413.8,211.9z"/>
			<path class="st9" d="M438.7,195c0.7,0,1.4,0.6,1.4,1.3c-0.1,1.5-0.1,3.1,0.2,4.6c0.2,1.5-2.1,2.1-2.5,0.7
				c-0.4-1.7-0.5-3.5-0.4-5.3C437.4,195.6,438,195,438.7,195z"/>
			<path class="st9" d="M470.8,222.4c-3.4,1.4-6.7,3.1-9.8,4.9c-0.5,0.4-1,0.7-1.6,1.1c1.4,1.3,2.2,3.1,2.4,5.2c0.4,3.1-1,6-3.1,8.2
				c-2.1,2.3-5.2,4.3-8.3,3.7c-3.4-0.7-4.5-4.4-3.8-7.4c0.8-3.1,3.2-5.7,5.6-7.8c0.7-0.7,1.4-1.1,2.1-1.7c-1.8-0.5-3.9-0.7-5.8-1.3
				c-2.4-0.8-4.8-2.2-5.7-4.8c-1.1-2.9,0.5-6.2,2.5-8.4c1.7-2,4.3-3.5,6.9-4.1c1.7-0.4,2.4,2.2,0.8,2.6c-3,0.7-5.6,2.6-7,5.3
				c-0.7,1.3-1.2,2.9-0.4,4.3c0.6,1.1,1.8,1.8,2.8,2.3c2.8,1.1,5.6,1.1,8.3,2.3c0.1,0,0.2,0.1,0.4,0.1c1.1-0.8,2.3-1.4,3.4-2.1
				c3.2-1.8,6.4-3.4,9.7-4.8c0.7-0.2,1.5,0.4,1.7,1C472,221.5,471.4,222.1,470.8,222.4z M457,229.9c-1.6,1-3.1,2.3-4.4,3.7
				c-1.7,1.6-4.1,4.4-3.5,7.1c0.2,1.1,0.9,2.1,2.2,2.2s2.5-0.5,3.5-1.1c2.2-1.4,4-3.7,4.4-6.4C459.5,233.3,458.7,231.1,457,229.9z"
				/>
			<path class="st9" d="M520.8,212.2c-1.8,6.2-5.3,11.8-10.6,15.5c-4.6,3.1-10.3,4.4-15.6,3.1c0.3,4,0.7,7.8,1.1,11.6
				c0.1,0.8-0.7,1.4-1.3,1.4c-0.7,0-1.1-0.6-1.2-1.4c-0.5-3.2-0.8-6.7-1.1-10.1c-0.1-0.8-0.1-1.6-0.1-2.4c-0.2-0.1-0.5-0.1-0.7-0.2
				c-0.7-0.3-0.8-1.3-0.5-1.9c0.3-0.3,0.5-0.5,1-0.6c-0.7-10.1-1-20.3-0.5-30.5c0-1.8,2.7-1.8,2.6,0c-0.1,3.4-0.1,6.8-0.1,10
				c0,3,0.1,5.9,0.1,8.9c1.3-4,3.2-8,5.7-11.6c3.5-5,8.8-11,15.7-9.5C523,196.4,522.4,206.3,520.8,212.2z M518.3,200.3
				c-1-2.4-3.5-3.3-6.1-3.2c-2.7,0.2-5.2,2.1-7,4c-2,2.2-3.8,4.7-5.3,7.3c-3,5.3-4.9,11.2-5.6,17.3c0,0.2-0.1,0.3-0.1,0.4
				c0,0.7,0.1,1.4,0.1,2c5.6,1.6,11.7-0.2,16-3.8c4.4-3.9,7.1-9.3,8.3-14.9C519.3,206.6,519.5,203.1,518.3,200.3z"/>
			<path class="st9" d="M549.7,223c-2.4,2.6-8,4.1-11.3,4.4c-0.1,0.2-0.1,0.4-0.2,0.7c-1.3,2.5-3.4,5.3-6.4,6.1
				c-3.1,1-5.7-1.1-7-3.8c-1-2.5-1.3-5.3,0.1-7.6c-1.1-1.6-1.7-3.5-1.4-5.6c0.5-2.9,2.9-5.6,5.5-6.9c2.7-1.3,6.1-1.3,8.4,0.8
				c2.1,2.1,2.6,5.6,2.6,8.3c0,1.7-0.2,3.4-0.7,5c2.3-0.2,6.6-1.7,8.5-3.9C548.8,219.7,551.2,221.4,549.7,223z M526.5,220.4
				c0.9,1.9,2.8,3.1,4.8,3.7c1.7,0.7,3.5,0.8,5.4,0.8c0.8-2.5,1.1-5.2,0.7-7.6c-0.4-2.2-1.1-4.4-3.5-5c-2.2-0.5-4.3,0.7-5.8,2.2
				C526.6,216.1,525.6,218.3,526.5,220.4z M535.5,227.5c-2.9-0.2-6.1-0.8-8.5-2.7c-0.8,1.7,0,4.3,1,5.7c0.5,0.8,1.4,1.5,2.6,1.4
				C532.7,231.6,534.4,229.4,535.5,227.5z"/>
			<path class="st9" d="M570.2,221.7c-2.3,1.3-5.2,2.2-7.6,1c-1.1-0.5-1.9-1.4-2.6-2.4c-0.6-0.8-1-1.9-1.7-2.6
				c-1.9-1.9-2.9,0.8-3.8,2.5c-1,2.5-1.7,5-2.3,7.5c-0.7,2.8-1.3,5.5-2,8.2c-0.3,1.6-2.5,1.2-2.6-0.2c-0.4-9,0.4-18.1,2.2-26.8
				c0.1-0.7,1-1.1,1.6-1c0.8,0.2,1.1,1,0.9,1.7c-0.8,4.7-1.4,9.5-1.7,14.3c0.5-2.1,1.3-4.1,2.2-6c0.5-1,1.1-2.3,2.3-3
				c1.1-0.8,2.5-0.7,3.8-0.1c1,0.5,1.9,1.6,2.5,2.7c0.6,0.8,1,1.9,1.9,2.5c1.6,1.3,4.1,0.4,5.8-0.5
				C570.5,218.6,571.7,220.9,570.2,221.7z"/>
			<path class="st9" d="M582.6,231.7c-2.3,2-4.8,3.2-7.4,3.1c-10.6-0.9-4.8-26-3.7-30.5c-2.5,0-4.4-0.1-6.9-0.2
				c-1.7-0.1-1.3-2.6,0.4-2.6c2.5,0.1,4.6,0.2,7.1,0.2c0.7-3.4,2.4-9.3,3.6-13.1c0.2-0.7,1.3-1,1.9-0.8c0.6,0.3,1.1,0.9,0.8,1.7
				c-1.3,3.5-2.8,8.6-3.7,12.2l0.5-0.1c4-0.1,7.9-0.4,11.8-0.7c0.7-0.1,1.2,0.7,1.1,1.3c-0.1,0.8-0.8,1.3-1.6,1.4
				c-4,0.4-8.6,0.5-12.5,0.7c-1.3,4.3-6.7,29.3,2.5,27.9c1.6-0.3,3.1-1.1,4.4-2.2c2.8-2.3,5-5.3,6.6-8.8c0.7-1.6,3-0.6,2.2,1.1
				C588.3,225.8,585.9,228.9,582.6,231.7z"/>
			<path class="st9" d="M593.7,221.9c6.4,0.5,13-0.5,19-2.8c0.7-0.2,1.4,0.3,1.6,0.9c0.2,0.8-0.2,1.4-0.9,1.7
				c-6.3,2.5-13.1,3.4-19.7,2.8c3.6,1.6,6.7,4.4,8.5,8c1.7,3.7,2.6,9.5-1.6,11.9c-4.6,2.4-8.1-3-9.8-6.5c-1.9-4-2.6-8.7-2.9-13.2
				c-0.2-5.1,0.5-10.1,2-15c1.3-4,3.1-8,6.1-11.3c2.7-3.1,7.1-6.5,11.5-5c2.2,0.7,3.7,2.6,3.9,4.9c0.2,2.3-0.8,4.5-1.9,6.5
				C605.8,211.7,600.3,217.7,593.7,221.9z M607.7,201.8c0.7-1.4,1.3-3.6,0.2-5c-1.1-1.3-3.1-1.3-4.6-0.8c-1.7,0.6-3.2,1.9-4.7,3.1
				c-1.3,1.4-2.4,2.9-3.5,4.5c-1.9,3.5-3.2,7.4-4,11.3c-0.4,2-0.6,4-0.7,5.9c0,0,0-0.1,0.1-0.1c0.8-0.5,1.7-1,2.4-1.6
				C599.4,215,604.7,208.8,607.7,201.8z M596.3,229.3c-1.3-1.1-2.8-2-4.3-2.5c-0.5-0.2-1-0.4-1.5-0.7c0.1,0.8,0.1,1.7,0.2,2.6
				c0.5,3.8,1.7,7.7,4,10.8c0.8,1.1,2.2,3.1,3.8,2.8c1.7-0.4,2.5-2.3,2.5-3.9C600.9,234.9,598.8,231.6,596.3,229.3z"/>
			<path class="st9" d="M638.1,223c-2.4,2.6-8,4.1-11.3,4.4c-0.1,0.2-0.1,0.4-0.2,0.7c-1.3,2.5-3.4,5.3-6.4,6.1
				c-3.1,1-5.7-1.1-7-3.8c-1-2.5-1.3-5.3,0.1-7.6c-1.1-1.6-1.7-3.5-1.4-5.6c0.5-2.9,2.9-5.6,5.5-6.9c2.7-1.3,6.1-1.3,8.4,0.8
				c2.1,2.1,2.6,5.6,2.6,8.3c0,1.7-0.2,3.4-0.7,5c2.3-0.2,6.6-1.7,8.5-3.9C637.3,219.7,639.6,221.4,638.1,223z M614.9,220.4
				c0.9,1.9,2.8,3.1,4.8,3.7c1.7,0.7,3.5,0.8,5.4,0.8c0.8-2.5,1.1-5.2,0.7-7.6c-0.4-2.2-1.1-4.4-3.5-5c-2.2-0.5-4.3,0.7-5.8,2.2
				C615,216.1,614,218.3,614.9,220.4z M623.9,227.5c-2.9-0.2-6.1-0.8-8.5-2.7c-0.8,1.7,0,4.3,1,5.7c0.5,0.8,1.4,1.5,2.6,1.4
				C621.1,231.6,622.8,229.4,623.9,227.5z"/>
			<path class="st9" d="M636.4,222c-0.3-4.2,0.1-8.6,0.8-12.6c0.6-3.7,1.5-7.4,2.9-10.9c0.7-1.7,1.5-3.5,2.5-5.2
				c0.9-1.6,2-3.2,3.4-4.4s3.5-2,5.2-0.9c1.4,0.7,1.8,2.3,1.9,3.7c0.2,1.6-0.4,3.2-0.8,4.8c-0.5,1.8-1.1,3.5-1.7,5.3
				c-2.6,6.8-6.6,13-11.6,18.3c0.1,0.6,0.1,1.1,0.1,1.6c0.4,14.9,14.5,14.6,20.3-1c0.2-0.7,1.3-0.8,1.8-0.5c0.7,0.4,0.8,1.2,0.5,1.9
				C653.9,239.7,637.7,239.9,636.4,222z M639.4,211.9c-0.2,1.4-0.4,2.8-0.4,4.3c4-4.7,7.1-10.2,9.3-16.1c0.6-1.5,1.1-3.1,1.5-4.6
				c0.4-1.3,0.7-2.8,0.5-4c-0.1-0.8-0.5-1.6-1.4-1.4c-1.4,0.5-2.4,2.2-3.2,3.3C642,199,640.4,205.6,639.4,211.9z"/>
			<path class="st9" d="M664,231.7c-2-0.9-3.3-2.9-4.1-5c-0.8-2.3-0.6-4.9-0.2-7.5c0.1-0.8,1-1.1,1.6-0.9c0.7,0.1,1.1,0.9,1,1.6
				c-0.4,2.2-0.4,4.6,0.4,6.7c0.7,1.6,1.9,2.8,3.6,3.1c1.7,0.5,3.7-0.1,5.2-0.9c3.4-1.7,6.4-4.7,8.5-7.9c0.4-0.6,1.1-0.9,1.9-0.5
				c0.5,0.3,0.8,1.3,0.4,1.7c-1.6,2.2-3.3,4.3-5.3,6C673.5,231.2,668.5,233.9,664,231.7z M661.3,211.1c1.7,0,1.7,2.7,0,2.7
				C659.5,213.8,659.5,211.1,661.3,211.1z"/>
			<path class="st9" d="M706,223c-2.4,2.6-8,4.1-11.3,4.4c-0.1,0.2-0.1,0.4-0.2,0.7c-1.3,2.5-3.4,5.3-6.4,6.1c-3.1,1-5.7-1.1-7-3.8
				c-1-2.5-1.3-5.3,0.1-7.6c-1.1-1.6-1.7-3.5-1.4-5.6c0.5-2.9,2.9-5.6,5.5-6.9c2.7-1.3,6.1-1.3,8.4,0.8c2.1,2.1,2.6,5.6,2.6,8.3
				c0,1.7-0.2,3.4-0.7,5c2.3-0.2,6.6-1.7,8.5-3.9C705.1,219.7,707.5,221.4,706,223z M682.8,220.4c0.9,1.9,2.8,3.1,4.8,3.7
				c1.7,0.7,3.5,0.8,5.4,0.8c0.8-2.5,1.1-5.2,0.7-7.6c-0.4-2.2-1.1-4.4-3.5-5c-2.2-0.5-4.3,0.7-5.8,2.2
				C682.9,216.1,681.9,218.3,682.8,220.4z M691.8,227.5c-2.9-0.2-6.1-0.8-8.5-2.7c-0.8,1.7,0,4.3,1,5.7c0.5,0.8,1.4,1.5,2.6,1.4
				C689,231.6,690.7,229.4,691.8,227.5z"/>
			<path class="st9" d="M709.1,234.6c-2.3,0-2.3-3.4,0-3.4C711.4,231.2,711.3,234.6,709.1,234.6z M712,193.7
				c-1.4,11-2,22.1-1.6,33.2c0,1.6-2.6,1.6-2.7,0c-0.3-11.2,0.3-22.2,1.6-33.2c0.1-0.6,0.5-1.2,1.4-1.2
				C711.3,192.5,712.1,193.1,712,193.7z"/>
		</g>
		<path id="Path_3595" class="st9" d="M436.5,188.8c-13.5,4.4,4,19.4,4,19.4l0,0c0.1-0.2,5.1-13.7-2.4-19.4"/>
		<path id="Path_3596" class="st10" d="M436.7,189.3c0,0-10.6-25.2-43.3-27.1"/>
	</g>
</g>
</svg>
